<svg xmlns="http://www.w3.org/2000/svg" width="36.663" height="36.663" viewBox="0 0 36.663 36.663"><defs><style>.a{fill:#b0d2e3;}</style></defs><path class="a" d="M19.295,31.515a2.037,2.037,0,1,0,2.037-2.037A2.043,2.043,0,0,0,19.295,31.515ZM19.295,3v8.147h4.074V7.237A14.25,14.25,0,1,1,7.074,21.331a14.089,14.089,0,0,1,3.218-9l11.04,11.04L24.2,20.5,10.353,6.646v.041A18.3,18.3,0,1,0,21.331,3ZM33.552,21.331a2.037,2.037,0,1,0-2.037,2.037A2.043,2.043,0,0,0,33.552,21.331Zm-24.442,0a2.037,2.037,0,1,0,2.037-2.037A2.043,2.043,0,0,0,9.11,21.331Z" transform="translate(-3 -3)"/></svg>