<svg xmlns="http://www.w3.org/2000/svg" width="128.515" height="102.017" viewBox="0 0 128.515 102.017"><defs><style>.a{fill:none;}.b{fill:#6d7a7c;}</style></defs><g transform="translate(26.499)"><path class="a" d="M0,0H102.017V102.017H0Z"/><path class="b" d="M31.755,43.444a5.313,5.313,0,1,0,5.313,5.313A5.315,5.315,0,0,0,31.755,43.444Zm25.5,0a5.313,5.313,0,1,0,5.313,5.313A5.315,5.315,0,0,0,57.259,43.444ZM44.507,2A42.507,42.507,0,1,0,87.014,44.507,42.522,42.522,0,0,0,44.507,2Zm0,76.512A34.051,34.051,0,0,1,10.5,44.507a34.463,34.463,0,0,1,.213-3.656A42.769,42.769,0,0,0,32.86,18.025a42.4,42.4,0,0,0,34.686,17.98A41.489,41.489,0,0,0,77.11,34.9a33.953,33.953,0,0,1-32.6,43.612Z" transform="translate(-28.499 6.501)"/></g></svg>