<svg xmlns="http://www.w3.org/2000/svg" width="60.611" height="60.611" viewBox="0 0 60.611 60.611"><defs><style>.a{fill:#1977f3;}.b{fill:#fefefe;}</style></defs><path class="a" d="M60.611,30.306A30.306,30.306,0,1,0,25.571,60.245V39.068h-7.7V30.306h7.7V23.627c0-7.595,4.526-11.792,11.447-11.792a46.588,46.588,0,0,1,6.785.592v7.458H39.98c-3.763,0-4.939,2.335-4.939,4.735v5.685h8.4L42.1,39.068H35.041V60.245A30.31,30.31,0,0,0,60.611,30.306Z"/><path class="b" d="M4218.229,2804.233l1.343-8.762h-8.4v-5.685c0-2.4,1.172-4.735,4.939-4.735h3.823v-7.458a46.589,46.589,0,0,0-6.785-.592c-6.921,0-11.447,4.194-11.447,11.792v6.678H4194v8.762h7.7v21.177a30.407,30.407,0,0,0,4.734.366,30.976,30.976,0,0,0,4.735-.366v-21.177Z" transform="translate(-4176.126 -2765.165)"/></svg>