<svg xmlns="http://www.w3.org/2000/svg" width="140.33" height="140.329" viewBox="0 0 140.33 140.329"><defs><style>.a{fill:#565c59;opacity:0.45;}</style></defs><path class="a" d="M65.369,112.145a7.8,7.8,0,1,0,7.8-7.8A7.819,7.819,0,0,0,65.369,112.145ZM65.369,3V34.184H80.961V19.216A54.543,54.543,0,1,1,18.592,73.165,53.927,53.927,0,0,1,30.91,38.706L73.165,80.961,84.157,69.968,31.144,16.955v.156A70.029,70.029,0,1,0,73.165,3Zm54.573,70.165a7.8,7.8,0,1,0-7.8,7.8A7.819,7.819,0,0,0,119.942,73.165Zm-93.553,0a7.8,7.8,0,1,0,7.8-7.8A7.819,7.819,0,0,0,26.388,73.165Z" transform="translate(-3 -3)"/></svg>