<svg xmlns="http://www.w3.org/2000/svg" width="163.642" height="13.496" viewBox="0 0 163.642 13.496"><defs><style>.a{fill:#f26924;}.b{fill:#3d5567;}</style></defs><g transform="translate(0 -0.02)"><g transform="translate(0 0.02)"><path class="a" d="M12.546,3.99l-4.451,9.7h-1.1L2.543,3.99v9.7H0V.62H3.593l3.942,8.6L11.5.62h3.593V13.69H12.549Z" transform="translate(0 -0.429)"/><path class="a" d="M69.878,11.182H63.2L62.134,13.69H59.25L64.957.62h3.179l5.723,13.07H70.934ZM63.939,9.163h5.22L66.546,2.931Z" transform="translate(-40.413 -0.429)"/><path class="a" d="M122.087,8.81h-2.543v4.88H117V.62h6.381c2.861,0,4.747,1.685,4.747,4.095a3.8,3.8,0,0,1-3.44,3.841l3.548,5.135H125.3Zm.954-6.161h-3.5V6.781h3.5a2.2,2.2,0,0,0,2.483-2.076C125.524,3.45,124.468,2.648,123.041,2.648Z" transform="translate(-79.802 -0.429)"/><path class="a" d="M170.675,8.184,169.4,9.516V13.69H166.86V.62H169.4V6.851L175.094.62h3.157l-5.9,6.161,6.336,6.9h-3.135Z" transform="translate(-113.81 -0.429)"/><path class="a" d="M216.26.62h9.951V2.648h-7.4v3.38h7.252V8.053h-7.252v3.624h7.4V13.7H216.26Z" transform="translate(-147.505 -0.429)"/><path class="a" d="M264.087,2.648h-4.4V.62h11.344V2.648h-4.4V13.69h-2.543Z" transform="translate(-177.127 -0.429)"/><path class="b" d="M309,.62h2.543V11.671h6.4V13.69H309Z" transform="translate(-210.76 -0.429)"/><path class="b" d="M351.27.62h2.543V13.69H351.27Z" transform="translate(-239.591 -0.429)"/><path class="b" d="M378.423,4.362V13.69H375.88V.62h2.613l7.427,9.074V.62h2.543V13.69H386Z" transform="translate(-256.377 -0.429)"/><path class="b" d="M435.815,8.184l-1.272,1.332V13.69H432V.62h2.543V6.851l5.7-6.231H443.4l-5.9,6.161,6.336,6.9H440.7Z" transform="translate(-294.654 -0.429)"/><path class="b" d="M479.895,9.676a6.591,6.591,0,0,0,4.594,1.8c2.092,0,2.919-.919,2.919-1.784,0-1.176-1.545-1.529-3.31-1.939-2.375-.528-5.16-1.157-5.16-3.92,0-2.156,2.111-3.815,5.29-3.815a8,8,0,0,1,5.446,1.822l-1.459,1.7a6.279,6.279,0,0,0-4.2-1.491c-1.5,0-2.461.636-2.461,1.628s1.478,1.351,3.2,1.742c2.394.55,5.246,1.218,5.246,4.057,0,2.178-1.7,4.038-5.618,4.038a8.235,8.235,0,0,1-5.9-2.076Z" transform="translate(-326.357 -0.02)"/></g></g></svg>