<svg xmlns="http://www.w3.org/2000/svg" width="48.571" height="28.333" viewBox="0 0 48.571 28.333"><defs><style>.a{fill:#b0d2e3;}</style></defs><path class="a" d="M40.475,17.143a9.175,9.175,0,0,0-1.073.1L35.234,13.1h5.242V7.024l-7.528,3.764L27.139,5H18.214V9.048h7.265L29.527,13.1H22.261l-8.1,4.048L10.119,13.1H0v4.048H8.1a8.1,8.1,0,1,0,8.1,8.1l4.048,4.048h6.071L33.372,16.94l2.044,2.044a8.006,8.006,0,0,0-3.036,6.253,8.1,8.1,0,1,0,8.1-8.1ZM8.1,29.285a4.048,4.048,0,1,1,4.048-4.048A4.059,4.059,0,0,1,8.1,29.285Zm32.38,0a4.048,4.048,0,1,1,4.048-4.048A4.059,4.059,0,0,1,40.475,29.285Z" transform="translate(0 -5)"/></svg>