<svg xmlns="http://www.w3.org/2000/svg" width="203.931" height="118.959" viewBox="0 0 203.931 118.959"><defs><style>.a{fill:#565c59;opacity:0.448;}</style></defs><path class="a" d="M169.942,55.982a38.524,38.524,0,0,0-4.5.425l-17.5-17.419h22.008V13.5L138.333,29.3,113.946,5H76.474V21.994h30.5l16.994,16.994h-30.5L59.48,55.982,42.486,38.988H0V55.982H33.988A33.988,33.988,0,1,0,67.977,89.971l16.994,16.994h25.491l29.655-51.832,8.582,8.582a33.614,33.614,0,0,0-12.746,26.256,33.988,33.988,0,1,0,33.988-33.988ZM33.988,106.965A16.994,16.994,0,1,1,50.983,89.971,17.044,17.044,0,0,1,33.988,106.965Zm135.954,0a16.994,16.994,0,1,1,16.994-16.994A17.044,17.044,0,0,1,169.942,106.965Z" transform="translate(0 -5)"/></svg>