<?xml version="1.0" encoding="utf-8"?>
<!-- Generator: Adobe Illustrator 24.3.0, SVG Export Plug-In . SVG Version: 6.00 Build 0)  -->
<svg version="1.1" id="Layer_1" xmlns="http://www.w3.org/2000/svg" xmlns:xlink="http://www.w3.org/1999/xlink" x="0px" y="0px"
	 viewBox="0 0 32.1 32.1" style="enable-background:new 0 0 32.1 32.1;" xml:space="preserve">
<style type="text/css">
	.st0{fill:none;}
	.st1{fill:#ED7D31;}
</style>
<path class="st0" d="M0,0h32.1v32.1H0V0z"/>
<path class="st1" d="M14.7,22.7c0,0.7,0.6,1.3,1.3,1.3c0.7,0,1.3-0.6,1.3-1.3s-0.6-1.3-1.3-1.3h0C15.3,21.4,14.7,22,14.7,22.7z
	 M14.7,4v5.3h2.7V6.8c5.1,0.7,8.6,5.5,7.9,10.6s-5.5,8.6-10.6,7.9c-4.6-0.7-8-4.6-8-9.3c0-2.2,0.7-4.2,2.1-5.9l7.2,7.2l1.9-1.9
	L8.8,6.4v0c-5.3,4-6.3,11.5-2.4,16.8s11.5,6.3,16.8,2.4s6.3-11.5,2.4-16.8C23.4,5.8,19.8,4,16,4H14.7z M24,16c0-0.7-0.6-1.3-1.3-1.3
	c-0.7,0-1.3,0.6-1.3,1.3c0,0.7,0.6,1.3,1.3,1.3c0,0,0,0,0,0C23.4,17.4,24,16.8,24,16z M8,16c0,0.7,0.6,1.3,1.3,1.3
	c0.7,0,1.3-0.6,1.3-1.3c0-0.7-0.6-1.3-1.3-1.3l0,0C8.6,14.7,8,15.3,8,16z"/>
</svg>
