<svg xmlns="http://www.w3.org/2000/svg" width="87.019" height="87.019" viewBox="0 0 87.019 87.019"><defs><style>.a{fill:#6d7a7c;}</style></defs><path class="a" d="M41.675,70.681a4.834,4.834,0,1,0,4.834-4.834A4.849,4.849,0,0,0,41.675,70.681ZM41.675,3V22.338h9.669V13.056A33.822,33.822,0,1,1,12.669,46.51a33.441,33.441,0,0,1,7.638-21.368l26.2,26.2,6.816-6.816L20.452,11.654v.1A43.425,43.425,0,1,0,46.51,3ZM75.516,46.51a4.834,4.834,0,1,0-4.834,4.834A4.849,4.849,0,0,0,75.516,46.51Zm-58.013,0a4.834,4.834,0,1,0,4.834-4.834A4.849,4.849,0,0,0,17.5,46.51Z" transform="translate(-3 -3)"/></svg>