<svg xmlns="http://www.w3.org/2000/svg" width="32.052" height="32.052" viewBox="0 0 32.052 32.052"><defs><style>.a{fill:none;}.b{fill:#565c59;}</style></defs><path class="a" d="M0,0H32.052V32.052H0Z"/><path class="b" d="M13.684,21.7a1.335,1.335,0,1,0,1.335-1.335A1.339,1.339,0,0,0,13.684,21.7Zm0-18.7V8.342h2.671V5.778A9.343,9.343,0,1,1,5.671,15.019a9.238,9.238,0,0,1,2.11-5.9l7.238,7.238L16.9,14.472,7.821,5.391v.027A12,12,0,1,0,15.019,3Zm9.348,12.019A1.335,1.335,0,1,0,21.7,16.355,1.339,1.339,0,0,0,23.032,15.019Zm-16.026,0a1.335,1.335,0,1,0,1.335-1.335A1.339,1.339,0,0,0,7.006,15.019Z" transform="translate(1.006 1.006)"/></svg>