<svg xmlns="http://www.w3.org/2000/svg" width="32" height="32" viewBox="0 0 32 32">
    <defs>
        <style>.a{fill:none;}.b{fill:#565c59;}</style>
    </defs>
    <g transform="translate(0.077 0.077)">
        <rect class="a" width="32" height="32" transform="translate(-0.077 -0.077)"/>
        <path class="b"
              d="M26.538,12.962a6.016,6.016,0,0,0-.7.066L23.1,10.308h3.437V6.327L21.6,8.795,17.794,5H11.942V7.654h4.764l2.654,2.654H14.6L9.288,12.962,6.635,10.308H0v2.654H5.308a5.308,5.308,0,1,0,5.308,5.308l2.654,2.654H17.25l4.631-8.094,1.34,1.34a5.249,5.249,0,0,0-1.99,4.1,5.308,5.308,0,1,0,5.308-5.308ZM5.308,20.923a2.654,2.654,0,1,1,2.654-2.654A2.662,2.662,0,0,1,5.308,20.923Zm21.231,0a2.654,2.654,0,1,1,2.654-2.654A2.662,2.662,0,0,1,26.538,20.923Z"
              transform="translate(0 1.635)"/>
    </g>
</svg>
