<svg xmlns="http://www.w3.org/2000/svg" width="187.967" height="28.675" viewBox="0 0 187.967 28.675"><defs><style>.a{fill:#00ade5;}.b{fill:#0173a9;}.c{fill:#fff;}</style></defs><g transform="translate(-0.6 -0.67)"><circle class="a" cx="2.428" cy="2.428" r="2.428" transform="translate(11.898 4.9)"/><circle class="a" cx="1.536" cy="1.536" r="1.536" transform="translate(8.692 0.67)"/><path class="b" d="M86.588,40.626H90.32l1.742,5.582,1.8-5.582H97.57l-2.928,8.1L96.408,53.4l4.4-12.815h4.362l-6.95,17.452H94.837l-2.752-6.826-2.769,6.826H85.95L79,40.6h4.349l4.42,12.815,1.717-4.679Z" transform="translate(-56.822 -28.933)"/><path class="b" d="M162.47,58.1l6.7-17.43h3.264l6.68,17.43h-4.272l-1.351-3.9h-5.425l-1.324,3.9Zm8.323-13.159-2.086,6.471H172.8Z" transform="translate(-117.319 -28.991)"/><path class="b" d="M236.465,45.344a8.915,8.915,0,0,0-4.665-1.671c-1.376,0-2.136.49-2.136,1.448,0,1.178,1.3,1.5,3.633,2.136,3.339.908,5.45,2.037,5.45,5.279,0,3.952-3.19,5.328-6.556,5.328A14.218,14.218,0,0,1,224.76,55.7l1.767-3.512a10.628,10.628,0,0,0,5.744,2.037c1.448,0,2.136-.465,2.136-1.3,0-1.3-1.792-1.621-4.2-2.356-3.217-.983-4.715-2.185-4.715-4.811,0-3.683,2.945-5.67,6.432-5.67a12.577,12.577,0,0,1,6.283,1.927Z" transform="translate(-162.465 -28.57)"/><path class="b" d="M299.15,40.63V58.071h-4.032V50.915h-6.944v7.156H284.15V40.63h4.027v6.751h6.941V40.63Z" transform="translate(-205.509 -28.962)"/><path class="a" d="M348.471,56.129V47.7H346.82v-2.97h1.651v-1.5c0-3.215,1.792-5.279,4.517-5.279a8.532,8.532,0,0,1,3.339.76l-.713,2.945a5,5,0,0,0-1.764-.388c-.958,0-1.448.639-1.448,1.817v1.651h3V47.7h-3v8.433Z" transform="translate(-250.93 -27.019)"/><path class="a" d="M384.4,65.357V57.1h3.928v7.4c0,1.572.639,2.43,1.792,2.43a3.2,3.2,0,0,0,2.824-1.866v-7.96h3.928v8.469c0,.787.245,1.057,1.007,1.1v3.3a10.436,10.436,0,0,1-1.866.2c-1.376-.025-2.161-.564-2.381-1.651l-.074-.784a5.908,5.908,0,0,1-5.13,2.477C385.823,70.242,384.4,68.55,384.4,65.357Z" transform="translate(-278.167 -40.899)"/><path class="a" d="M453.656,69.4h-3.928V62.147c0-1.693-.713-2.43-1.742-2.43A3.388,3.388,0,0,0,445.138,62v7.4H441.21V56.5h3.534v2.166a5.688,5.688,0,0,1,5.009-2.405c3.363,0,3.9,2.725,3.9,4.885Z" transform="translate(-319.342 -40.29)"/><path class="a" d="M493.12,50.277c0-3.757,2.356-6.677,5.694-6.677a4.679,4.679,0,0,1,4.128,2.356V38.8h3.928V52.314c0,.787.245,1.057,1.007,1.1v3.3a10.459,10.459,0,0,1-1.891.2c-1.351-.025-2.161-.589-2.356-1.651l-.085-.663a4.91,4.91,0,0,1-4.346,2.381C495.649,56.979,493.12,54.105,493.12,50.277Zm9.845,1.6v-2.7a3.345,3.345,0,0,0-2.9-2.235,3.168,3.168,0,0,0-2.9,3.413,3.041,3.041,0,0,0,5.8,1.525Z" transform="translate(-356.964 -27.636)"/><path class="a" d="M551.9,63.026a6.9,6.9,0,0,1,13.8-.173,8.6,8.6,0,0,1-.1,1.252h-9.531a2.774,2.774,0,0,0,2.873,2.65,2.948,2.948,0,0,0,2.725-1.547l3.339.933a6.632,6.632,0,0,1-6.187,3.438A6.5,6.5,0,0,1,551.9,63.026Zm9.661-1.34a2.777,2.777,0,0,0-5.549,0Z" transform="translate(-399.566 -40.247)"/><path class="a" d="M616.614,59.968c-1.891.025-3.537.614-4.247,1.792v7.745H608.44v-12.9h3.608v2.6A4.787,4.787,0,0,1,616,56.41a3.52,3.52,0,0,1,.614.025Z" transform="translate(-440.545 -40.396)"/><path class="a" d="M640.37,67.966l1.549-2.65a9.744,9.744,0,0,0,4.786,1.522c1.128,0,1.767-.369,1.767-1.057s-.713-.958-2.725-1.472c-3.487-.908-4.715-1.742-4.715-3.707,0-2.626,2.26-4.371,5.328-4.371a12.012,12.012,0,0,1,5.524,1.522l-1.547,2.477a8.174,8.174,0,0,0-3.977-1.277c-.983,0-1.693.344-1.693,1.079s.589.958,2.43,1.4c3.807.958,5.155,1.866,5.155,4,0,2.554-2.111,4.172-5.45,4.172A13.643,13.643,0,0,1,640.37,67.966Z" transform="translate(-463.687 -40.268)"/><path class="a" d="M8.444,31.66C7.04,32.951.6,39.088.6,43.784a7.844,7.844,0,1,0,15.688,0C16.288,39.237,9.85,32.973,8.444,31.66Z" transform="translate(0 -22.461)"/><path class="c" d="M11.966,80.986A6.515,6.515,0,0,1,5.46,74.48H7.087a4.885,4.885,0,0,0,4.88,4.88Z" transform="translate(-3.522 -53.495)"/></g></svg>