<?xml version="1.0"?>
<svg xmlns="http://www.w3.org/2000/svg" xmlns:xlink="http://www.w3.org/1999/xlink" version="1.1" id="Layer_1_1_" x="0px" y="0px" viewBox="0 0 64 64" style="enable-background:new 0 0 64 64;" xml:space="preserve" width="512px" height="512px"><g><g>
	<path d="M50.68,42.778l-1.359-1.468C46.752,43.69,43.403,45,39.891,45c-5.903,0-11.176-3.749-13.122-9.329l-1.889,0.658   C27.106,42.712,33.138,47,39.891,47C43.908,47,47.74,45.5,50.68,42.778z" data-original="#000000" class="active-path" data-old_color="#000000" fill="#FFFFFF"/>
	<path d="M56.44,42.143L59.869,37H58c-0.387,0-0.769-0.011-1.144-0.033c-1.662-0.096-3.276-0.428-4.832-0.958   c2.889-1.609,4.793-4.636,4.958-7.976c1.717-1.594,2.813-3.798,2.991-6.207C61.253,20.202,62,18.166,62,16v-1.476l-22.098,8.814   C39.315,21.439,39,19.476,39,17.479V10.5C39,5.262,34.738,1,29.5,1S20,5.262,20,10.5l-2.96,2.48   c-0.262-0.321-0.546-0.627-0.854-0.913l-3.692-3.433l-0.681,0.633C9.999,10.955,9,13.204,9,15.6s0.999,4.646,2.813,6.333   l3.692,3.433l0.681-0.633c1.642-1.527,2.6-3.519,2.773-5.634l1.04,0.52V31.11c0,9.636,6.89,17.688,16,19.503V61H11v-2v-1v-3h1   c3.86,0,7-3.14,7-7v-1h-3c-1.958,0-3.728,0.81-5,2.11V47v-1v-1h1c3.86,0,7-3.14,7-7v-1h-3c-3.014,0-5.582,1.919-6.566,4.596   C8.15,40.014,6.192,39,4,39H1v1c0,3.86,3.14,7,7,7h1v6.11C7.728,51.81,5.958,51,4,51H1v1c0,3.86,3.14,7,7,7h1v2H5v2h54v-2H44   V50.565C49.039,49.504,53.518,46.526,56.44,42.143z M16,49h0.899c-0.464,2.279-2.485,4-4.899,4h-0.899   C11.565,50.721,13.585,49,16,49z M16,39h0.899c-0.464,2.279-2.485,4-4.899,4h-0.899C11.565,40.721,13.585,39,16,39z M8,45   c-2.415,0-4.435-1.721-4.899-4H4c2.415,0,4.435,1.721,4.899,4H8z M8,57c-2.415,0-4.435-1.721-4.899-4H4   c2.415,0,4.435,1.721,4.899,4H8z M55.002,23.012l-11.328,3.91l0.652,1.891l11.328-3.91c0.601-0.207,1.166-0.477,1.699-0.791   c-0.816,1.851-2.357,3.344-4.352,4.033l-11.328,3.91l0.652,1.891l11.328-3.91c0.364-0.126,0.713-0.278,1.053-0.444   c-0.645,2.323-2.356,4.275-4.676,5.145l-9.232,3.462c-0.65,0.244-1.332,0.368-2.027,0.368c-3.183,0-5.772-2.589-5.772-5.772   c0-2.764,1.659-5.212,4.227-6.236l22.612-9.019C59.306,20.049,57.495,22.152,55.002,23.012z M15.462,22.594l-2.286-2.126   C11.772,19.164,11,17.435,11,15.6c0-1.534,0.541-2.994,1.538-4.194l2.287,2.126c0.247,0.23,0.473,0.476,0.682,0.733l-2.321,1.945   l3.802,1.901C17.061,19.735,16.526,21.312,15.462,22.594z M22,31.11V18.382l-5.185-2.592L22,11.468V10.5C22,6.364,25.364,3,29.5,3   S37,6.364,37,10.5v6.979c0,2.252,0.364,4.464,1.041,6.601l-1.556,0.62C33.153,26.03,31,29.207,31,32.794   c0,4.286,3.486,7.772,7.772,7.772c0.936,0,1.854-0.167,2.729-0.495l7.894-2.96c2.149,0.994,4.424,1.613,6.787,1.813l-1.406,2.109   C51.45,46.022,45.885,49,39.89,49C30.025,49,22,40.975,22,31.11z M42,61h-4V50.904C38.623,50.963,39.252,51,39.89,51   c0.71,0,1.413-0.045,2.11-0.119V61z" data-original="#000000" class="active-path" data-old_color="#000000" fill="#FFFFFF"/>
	<path d="M29,11c1.654,0,3-1.346,3-3s-1.346-3-3-3s-3,1.346-3,3S27.346,11,29,11z M29,7c0.551,0,1,0.449,1,1s-0.449,1-1,1   s-1-0.449-1-1S28.449,7,29,7z" data-original="#000000" class="active-path" data-old_color="#000000" fill="#FFFFFF"/>
	<rect x="1" y="61" width="2" height="2" data-original="#000000" class="active-path" data-old_color="#000000" fill="#FFFFFF"/>
	<rect x="61" y="61" width="2" height="2" data-original="#000000" class="active-path" data-old_color="#000000" fill="#FFFFFF"/>
</g></g> </svg>
