<svg id="Capa_1" enable-background="new 0 0 512 512" height="512" viewBox="0 0 512 512" width="512" xmlns="http://www.w3.org/2000/svg"><g><g><circle cx="256" cy="256" fill="#fd9468" r="248.5"/><path d="m400.155 53.567c15.283 32.274 23.845 68.351 23.845 106.433 0 137.519-111.481 249-249 249-53.177 0-102.453-16.681-142.903-45.08 40.17 83.189 125.333 140.58 223.903 140.58 137.243 0 248.5-111.257 248.5-248.5 0-83.498-41.185-157.375-104.345-202.433z" fill="#fe7d43"/><circle cx="256" cy="256" fill="#ffdcce" r="216.385"/><path d="m343.638 260.51c9.29-7.084 16.426-17.287 19.667-29.611 7.628-29.006-9.12-58.874-37.335-66.58l-5.418-1.48 4.522-17.196c2.049-7.791-2.354-15.763-9.835-17.806-7.48-2.043-15.205 2.617-17.254 10.408l-4.522 17.196-29.88-8.161 4.522-17.196c2.049-7.791-2.354-15.763-9.835-17.806-7.48-2.043-15.205 2.617-17.254 10.408l-4.522 17.196-38.444-10.5c-7.48-2.043-15.205 2.617-17.254 10.408s2.354 15.763 9.835 17.806l22.027 6.016-34.917 132.778-22.027-6.016c-7.48-2.043-15.205 2.617-17.254 10.408s2.354 15.763 9.835 17.806l38.444 10.5-3.841 14.606c-2.049 7.791 2.354 15.763 9.835 17.806 7.48 2.043 15.205-2.617 17.254-10.408l3.841-14.606 29.88 8.161-3.841 14.606c-2.049 7.791 2.354 15.763 9.835 17.806 7.48 2.043 15.205-2.617 17.254-10.408l3.841-14.606 17.047 4.656c30.1 8.221 61.207-10.26 69.342-41.196 5.319-20.227-.483-40.845-13.548-54.995zm-25.088-67.977c13.277 3.626 21.202 17.518 17.665 30.968-3.537 13.449-17.216 21.441-30.493 17.815l-47.2-12.891-31.604-8.632 12.828-48.783zm-23.287 135.954-90.433-24.699 14.669-55.782 31.604 8.632 47.2 12.891 11.629 3.176c15.163 4.141 24.209 20.023 20.165 35.401-4.045 15.38-19.671 24.523-34.834 20.381z" fill="#fd9468"/><path d="m419.876 114.697c2.701 14.692 4.124 29.83 4.124 45.303 0 137.519-111.481 249-249 249-30.164 0-59.074-5.366-85.831-15.191 39.689 47.993 99.688 78.576 166.831 78.576 119.506 0 216.385-96.879 216.385-216.385 0-54.008-19.79-103.391-52.509-141.303z" fill="#ffd1be"/></g><g><path d="m437.02 74.98c-48.353-48.351-112.64-74.98-181.02-74.98-49.542 0-97.609 14.175-139.006 40.992-3.477 2.252-4.469 6.896-2.217 10.372 2.252 3.477 6.897 4.469 10.372 2.217 38.963-25.24 84.21-38.581 130.851-38.581 64.374 0 124.894 25.068 170.413 70.587s70.587 106.039 70.587 170.413-25.068 124.894-70.587 170.413-106.039 70.587-170.413 70.587-124.894-25.068-170.413-70.587-70.587-106.039-70.587-170.413c0-70.348 30.634-137.01 84.048-182.892 3.142-2.699 3.501-7.435.803-10.576-2.7-3.142-7.434-3.501-10.576-.802-56.735 48.735-89.275 119.543-89.275 194.27 0 68.38 26.629 132.667 74.98 181.02 48.353 48.351 112.64 74.98 181.02 74.98s132.667-26.629 181.02-74.98c48.351-48.353 74.98-112.64 74.98-181.02s-26.629-132.667-74.98-181.02z"/><path d="m373.889 446.367c31.791-19.728 58.366-47.334 76.852-79.835 19.066-33.522 29.144-71.744 29.144-110.532 0-59.802-23.288-116.024-65.574-158.311-42.287-42.286-98.509-65.574-158.311-65.574s-116.024 23.288-158.311 65.574c-42.286 42.287-65.574 98.509-65.574 158.311s23.288 116.024 65.574 158.311c42.287 42.286 98.509 65.574 158.311 65.574 30.313 0 59.715-5.955 87.392-17.701 3.813-1.618 5.592-6.021 3.974-9.833-1.618-3.813-6.02-5.589-9.833-3.975-25.813 10.955-53.245 16.509-81.533 16.509-115.179 0-208.885-93.706-208.885-208.885s93.706-208.885 208.885-208.885 208.885 93.706 208.885 208.885c0 36.193-9.399 71.85-27.183 103.116-17.251 30.331-42.053 56.095-71.722 74.506-3.52 2.184-4.602 6.808-2.418 10.327 2.184 3.52 6.808 4.603 10.327 2.418z"/><path d="m224.942 227.027 78.804 21.523c2.809.767 5.66 1.146 8.495 1.146 5.563 0 11.058-1.462 16.017-4.325 7.573-4.372 12.975-11.461 15.21-19.964 4.579-17.412-5.713-35.405-22.942-40.11l-78.803-21.523c-1.932-.528-3.992-.26-5.726.739-1.733 1-2.995 2.652-3.504 4.588l-12.829 48.783c-1.045 3.98 1.309 8.059 5.278 9.143zm20.133-46.787 71.5 19.528c9.326 2.547 14.883 12.338 12.388 21.826-1.21 4.602-4.123 8.433-8.203 10.788-3.994 2.305-8.632 2.909-13.061 1.7l-71.637-19.565z"/><path d="m247.725 384.293c1.837.502 3.704.75 5.562.75 3.671 0 7.305-.969 10.592-2.867 5.13-2.961 8.799-7.798 10.33-13.619l1.915-7.283 9.743 2.661c16.248 4.437 33.3 2.203 48.016-6.292 15.187-8.766 26.039-23.054 30.556-40.232 5.155-19.604 1.263-40.021-10.384-56.016 7.949-7.794 13.6-17.549 16.503-28.59 8.512-32.368-9.759-65.702-40.87-75.218l2.64-10.038c3.087-11.74-3.692-23.83-15.112-26.948-5.465-1.492-11.202-.742-16.153 2.116-5.131 2.961-8.8 7.798-10.331 13.619l-2.597 9.874-15.409-4.208 2.633-10.011c3.087-11.741-3.691-23.83-15.112-26.949-5.466-1.493-11.203-.741-16.154 2.117-5.13 2.961-8.799 7.798-10.33 13.619l-2.596 9.874-31.14-8.505c-5.466-1.494-11.203-.74-16.154 2.117-5.13 2.961-8.799 7.798-10.33 13.619-3.087 11.74 3.692 23.83 15.112 26.948l14.86 4.059-31.101 118.27-14.723-4.021c-5.466-1.494-11.203-.741-16.154 2.117-5.131 2.961-8.799 7.798-10.33 13.619-3.087 11.74 3.692 23.83 15.112 26.948l31.277 8.542-1.951 7.421c-3.087 11.74 3.692 23.83 15.112 26.948 5.467 1.494 11.204.741 16.154-2.117 5.13-2.961 8.799-7.798 10.33-13.619l1.915-7.283 15.409 4.208-1.951 7.42c-3.088 11.742 3.691 23.831 15.111 26.95zm-31.921-55.042c-.65-.178-1.314-.265-1.976-.265-1.305 0-2.599.341-3.75 1.004-1.733 1-2.995 2.652-3.504 4.588l-3.841 14.605c-.505 1.919-1.685 3.497-3.322 4.442-1.458.841-3.129 1.067-4.703.638-3.517-.96-5.562-4.847-4.558-8.664l3.841-14.605c1.046-3.979-1.308-8.058-5.277-9.142l-38.444-10.5c-3.517-.96-5.562-4.847-4.558-8.664.505-1.92 1.685-3.498 3.322-4.443 1.458-.841 3.128-1.066 4.703-.638l22.027 6.016c1.93.527 3.991.261 5.726-.739 1.733-1 2.995-2.652 3.504-4.588l34.917-132.779c1.046-3.979-1.309-8.058-5.277-9.142l-22.027-6.016c-3.517-.96-5.562-4.847-4.558-8.664.505-1.919 1.685-3.497 3.322-4.442 1.458-.842 3.128-1.067 4.703-.638l38.444 10.5c1.931.527 3.991.262 5.726-.739 1.733-1 2.995-2.652 3.504-4.588l4.522-17.196c.505-1.919 1.685-3.497 3.322-4.442 1.458-.841 3.128-1.067 4.703-.638 3.517.96 5.561 4.847 4.557 8.664l-4.522 17.196c-1.046 3.979 1.309 8.058 5.277 9.142l29.88 8.161c1.931.527 3.992.262 5.726-.739 1.733-1 2.995-2.653 3.504-4.588l4.522-17.196c.505-1.92 1.685-3.498 3.322-4.443 1.458-.841 3.128-1.066 4.703-.637 3.517.96 5.562 4.847 4.558 8.664l-4.522 17.196c-1.046 3.979 1.309 8.058 5.277 9.142l5.417 1.479c24.262 6.627 38.643 32.393 32.057 57.438-2.716 10.328-8.581 19.165-16.961 25.555-1.679 1.28-2.741 3.209-2.924 5.313s.529 4.188 1.961 5.739c11.905 12.894 16.318 30.837 11.805 48-3.492 13.277-11.854 24.306-23.548 31.056-11.222 6.478-24.208 8.187-36.564 4.813l-17.047-4.656c-1.931-.529-3.991-.261-5.726.739-1.733 1-2.995 2.652-3.504 4.588l-3.841 14.605c-.505 1.919-1.685 3.497-3.322 4.442-1.458.842-3.128 1.066-4.703.638-3.517-.96-5.561-4.847-4.557-8.664l3.841-14.605c1.046-3.979-1.308-8.058-5.277-9.142z"/><path d="m302.697 336.992c6.166 0 12.257-1.621 17.757-4.795 8.411-4.855 14.411-12.733 16.896-22.184 5.086-19.341-6.328-39.323-25.442-44.543l-90.433-24.699c-1.931-.528-3.991-.261-5.726.739-1.733 1-2.995 2.653-3.504 4.588l-14.669 55.782c-1.046 3.979 1.309 8.058 5.277 9.142l90.433 24.699c3.111.851 6.271 1.271 9.411 1.271zm-77.87-79.756 83.129 22.704c11.211 3.062 17.89 14.842 14.888 26.259-1.459 5.549-4.971 10.169-9.889 13.007-4.807 2.775-10.389 3.501-15.716 2.046l-83.266-22.742z"/></g></g></svg>