<?xml version="1.0"?>
<svg xmlns="http://www.w3.org/2000/svg" xmlns:xlink="http://www.w3.org/1999/xlink" version="1.1" id="Capa_1" x="0px" y="0px" viewBox="0 0 511.988 511.988" style="enable-background:new 0 0 511.988 511.988;" xml:space="preserve" width="512px" height="512px"><g><g>
	<g>
		<path d="M473.364,168.734c0-3.203,1.25-6.214,3.516-8.484c1.562-1.562,1.562-4.094,0-5.656L369.42,47.116    c-1.562-1.563-4.094-1.559-5.656-0.004c-4.687,4.68-12.296,4.68-16.984,0c-1.562-1.555-4.094-1.558-5.656,0.004l-38.059,38.061    c-1.562,1.562-1.562,4.093,0,5.655c1.562,1.562,4.092,1.562,5.654,0l35.521-35.517c6.656,4.406,15.406,4.406,22.062,0    l102.375,102.387c-2.157,3.242-3.311,7.051-3.311,11.031c0,3.98,1.155,7.789,3.311,11.031L337.14,311.318    c-1.562,1.562-1.562,4.094,0,5.656c0.781,0.781,1.803,1.172,2.826,1.172s2.047-0.39,2.828-1.172l134.086-134.1    c1.562-1.562,1.562-4.094,0-5.656C474.614,174.952,473.364,171.937,473.364,168.734z" data-original="#000000" class="active-path" data-old_color="#000000" fill="#FFFFFF"/>
	</g>
</g><g>
	<g>
		<path d="M510.816,165.907L358.091,13.181c-1.562-1.562-4.094-1.562-5.656,0l-71.996,71.996c-1.562,1.562-1.562,4.093,0,5.655    c1.562,1.562,4.094,1.562,5.656,0l69.168-69.167l147.068,147.069L337.14,333.935c-1.562,1.562-1.562,4.094,0,5.656    c0.781,0.781,1.803,1.172,2.826,1.172s2.047-0.391,2.828-1.172l168.022-168.029C512.378,170,512.378,167.469,510.816,165.907z" data-original="#000000" class="active-path" data-old_color="#000000" fill="#FFFFFF"/>
	</g>
</g><g>
	<g>
		<path d="M332.882,125.142h-0.086c-2.203,0-3.953,1.789-3.953,4c0,2.211,1.828,4,4.039,4c2.203,0,4-1.789,4-4    C336.882,126.931,335.085,125.142,332.882,125.142z" data-original="#000000" class="active-path" data-old_color="#000000" fill="#FFFFFF"/>
	</g>
</g><g>
	<g>
		<path d="M344.192,113.83h-0.086c-2.203,0-3.953,1.789-3.953,4s1.828,4,4.039,4c2.203,0,4-1.789,4-4S346.395,113.83,344.192,113.83    z" data-original="#000000" class="active-path" data-old_color="#000000" fill="#FFFFFF"/>
	</g>
</g><g>
	<g>
		<path d="M355.505,102.518h-0.086c-2.203,0-3.953,1.79-3.953,4c0,2.211,1.828,4,4.039,4c2.203,0,4-1.789,4-4    S357.708,102.518,355.505,102.518z" data-original="#000000" class="active-path" data-old_color="#000000" fill="#FFFFFF"/>
	</g>
</g><g>
	<g>
		<path d="M425.978,160.25c-1.562-1.562-4.094-1.562-5.656,0l-67.887,67.879c-1.562,1.563-1.562,4.094,0,5.656    c0.781,0.78,1.805,1.171,2.828,1.171s2.046-0.391,2.828-1.172l67.887-67.878C427.54,164.344,427.54,161.812,425.978,160.25z" data-original="#000000" class="active-path" data-old_color="#000000" fill="#FFFFFF"/>
	</g>
</g><g>
	<g>
		<path d="M346.778,205.497l-16.326-16.327c-1.562-1.562-4.094-1.562-5.656,0s-1.562,4.094,0,5.656l16.326,16.327    c0.781,0.781,1.805,1.172,2.828,1.172s2.047-0.391,2.828-1.172C348.34,209.591,348.34,207.059,346.778,205.497z" data-original="#000000" class="active-path" data-old_color="#000000" fill="#FFFFFF"/>
	</g>
</g><g>
	<g>
		<path d="M372.231,163.078l-11.311-11.312c-6.047-6.046-16.578-6.046-22.625,0c-6.232,6.238-6.232,16.386,0,22.624l11.312,11.312    c3.023,3.023,7.039,4.687,11.312,4.687s8.289-1.665,11.312-4.687C378.465,179.464,378.465,169.316,372.231,163.078z     M366.574,180.046c-3.031,3.023-8.281,3.023-11.312,0l-11.312-11.312c-3.117-3.117-3.117-8.195,0-11.312    c1.515-1.512,3.523-2.344,5.656-2.344s4.141,0.832,5.656,2.344l11.312,11.312C369.691,171.851,369.691,176.929,366.574,180.046z" data-original="#000000" class="active-path" data-old_color="#000000" fill="#FFFFFF"/>
	</g>
</g><g>
	<g>
		<path d="M400.511,134.797l-11.305-11.308c-6.031-6.05-16.586-6.042-22.631-0.008c-3.024,3.02-4.688,7.039-4.688,11.312    c0,4.277,1.665,8.293,4.688,11.316l11.311,11.312c3.023,3.024,7.039,4.688,11.32,4.688c4.273,0,8.297-1.668,11.305-4.688    C406.743,151.183,406.743,141.035,400.511,134.797z M394.846,151.771c-3,3.027-8.274,3.023-11.305-0.004l-11.312-11.312    c-1.508-1.512-2.342-3.523-2.342-5.66c0-2.136,0.826-4.14,2.342-5.652c1.516-1.512,3.523-2.344,5.664-2.344    c2.133,0,4.141,0.832,5.649,2.344l11.312,11.312C397.971,143.572,397.971,148.65,394.846,151.771z" data-original="#000000" class="active-path" data-old_color="#000000" fill="#FFFFFF"/>
	</g>
</g><g>
	<g>
		<path d="M352.435,199.841c-1.562-1.562-4.094-1.562-5.656,0l-11.311,11.32c-1.562,1.563-1.562,4.097,0,5.656    c0.781,0.781,1.805,1.172,2.826,1.172c1.023,0,2.047-0.391,2.829-1.172l11.312-11.32    C353.997,203.934,353.997,201.4,352.435,199.841z" data-original="#000000" class="active-path" data-old_color="#000000" fill="#FFFFFF"/>
	</g>
</g><g>
	<g>
		<path d="M327.961,439.796l-15.977-311.957c-0.57-15.347-13.514-27.834-28.873-27.834H44.868    c-15.358,0-28.311,12.487-28.858,27.779L0.019,439.85c-0.274,7.476,2.405,14.531,7.546,19.858    c5.14,5.335,12.093,8.273,19.577,8.273h273.703c7.482,0,14.435-2.937,19.577-8.272    C325.563,454.382,328.242,447.327,327.961,439.796z M314.656,454.162c-3.618,3.75-8.524,5.819-13.811,5.819H27.142    c-5.29,0-10.195-2.069-13.812-5.819c-3.625-3.758-5.508-8.734-5.32-13.961l15.992-312.07c0.398-11.097,9.757-20.128,20.866-20.128    v-0.001H283.11c11.102,0,20.469,9.032,20.883,20.187l15.975,311.957C320.164,445.428,318.281,450.404,314.656,454.162z" data-original="#000000" class="active-path" data-old_color="#000000" fill="#FFFFFF"/>
	</g>
</g><g>
	<g>
		<path d="M327.969,463.849c-0.078-2.157-1.859-3.852-4-3.852c-0.046,0-0.093,0-0.148,0c-2.204,0.086-3.93,1.937-3.852,4.148    c0.196,5.282-1.687,10.257-5.312,14.015c-3.618,3.75-8.524,5.82-13.811,5.82H27.143c-5.29,0-10.195-2.07-13.812-5.82    c-3.624-3.758-5.507-8.734-5.312-14.015c0.078-2.21-1.649-4.062-3.852-4.148c-2.515-0.046-4.07,1.649-4.148,3.852    c-0.274,7.475,2.405,14.53,7.546,19.858c5.14,5.335,12.093,8.272,19.577,8.272h273.703c7.482,0,14.435-2.936,19.577-8.272    C325.563,478.379,328.242,471.325,327.969,463.849z" data-original="#000000" class="active-path" data-old_color="#000000" fill="#FFFFFF"/>
	</g>
</g><g>
	<g>
		<path d="M4.018,437.475c-2.211,0-4,1.788-4,3.999v22.523c0,2.211,1.79,4,4,4c2.211,0,4-1.789,4-4.001v-22.522    C8.018,439.263,6.229,437.475,4.018,437.475z" data-original="#000000" class="active-path" data-old_color="#000000" fill="#FFFFFF"/>
	</g>
</g><g>
	<g>
		<path d="M323.968,437.538c-2.211,0-4,1.788-4,3.999v22.46c0,2.211,1.789,4,4,4s4-1.789,4-4v-22.46    C327.968,439.326,326.179,437.538,323.968,437.538z" data-original="#000000" class="active-path" data-old_color="#000000" fill="#FFFFFF"/>
	</g>
</g><g>
	<g>
		<path d="M224.63,223.968c-0.047-6.601-5.46-11.972-12.062-11.972h-30.576c-6.617,0-11.999,5.382-11.999,11.999v23.999    c0,6.617,5.382,12,11.999,12h30.873c3.195,0,6.203-1.254,8.461-3.531c2.265-2.278,3.499-5.297,3.476-8.496L224.63,223.968z     M215.654,250.826c-0.75,0.754-1.742,1.168-2.789,1.168h-30.873c-2.204,0-4-1.793-4-4v-23.998c0-2.207,1.797-4,4-4h30.576    c2.226,0,4.046,1.808,4.062,4.027l0.172,23.999C216.81,249.076,216.404,250.072,215.654,250.826z" data-original="#000000" class="active-path" data-old_color="#000000" fill="#FFFFFF"/>
	</g>
</g><g>
	<g>
		<path d="M288.548,223.882c-0.187-6.554-5.672-11.886-12.234-11.886h-31.748c-3.195,0-6.203,1.254-8.46,3.531    c-2.266,2.278-3.5,5.297-3.477,8.496l0.172,23.999c0.047,6.601,5.461,11.972,12.062,11.972h32.622    c3.211,0,6.211-1.266,8.446-3.559c2.226-2.301,3.406-5.336,3.32-8.558L288.548,223.882z M280.189,250.858    c-0.711,0.735-1.672,1.137-2.703,1.137h-32.623c-2.227,0-4.046-1.809-4.062-4.027l-0.172-23.999    c-0.008-1.055,0.398-2.051,1.148-2.805c0.75-0.754,1.742-1.168,2.789-1.168h31.748c2.234,0,4.172,1.883,4.234,4.117l0.703,23.995    C281.283,249.148,280.908,250.124,280.189,250.858z" data-original="#000000" class="active-path" data-old_color="#000000" fill="#FFFFFF"/>
	</g>
</g><g>
	<g>
		<path d="M97.52,215.571c-2.219-2.304-5.218-3.574-8.445-3.574H57.327c-6.492,0-12.077,5.269-12.46,11.753l-1.398,24.026    c-0.188,3.234,0.914,6.293,3.101,8.613c2.187,2.324,5.187,3.605,8.429,3.605h32.623c6.531,0,12.038-5.312,12.288-11.847    l0.867-24.01C100.895,220.914,99.738,217.876,97.52,215.571z M91.911,247.855c-0.078,2.245-2.047,4.14-4.289,4.14H54.999    c-1.015,0-1.945-0.387-2.609-1.094c-0.665-0.703-0.993-1.644-0.938-2.66l1.398-24.026c0.133-2.285,2.188-4.219,4.477-4.219v0.001    h31.747c1.032,0,1.985,0.398,2.688,1.125c0.696,0.723,1.055,1.688,1.016,2.723L91.911,247.855z" data-original="#000000" class="active-path" data-old_color="#000000" fill="#FFFFFF"/>
	</g>
</g><g>
	<g>
		<path d="M149.993,211.997h-28.92c-6.531,0-12.038,5.312-12.288,11.847l-0.875,24.01c-0.118,3.218,1.039,6.261,3.257,8.566    c2.219,2.304,5.226,3.574,8.453,3.574h30.373c6.618,0,12-5.383,12-12v-23.998C161.993,217.379,156.61,211.997,149.993,211.997z     M153.993,247.994c0,2.168-1.828,4-4,4h-30.372c-1.039,0-1.992-0.398-2.695-1.125c-0.696-0.722-1.055-1.687-1.016-2.722    l0.875-24.01c0.078-2.246,2.047-4.141,4.289-4.141v-0.001h28.919c2.172,0,4,1.832,4,4V247.994z" data-original="#000000" class="active-path" data-old_color="#000000" fill="#FFFFFF"/>
	</g>
</g><g>
	<g>
		<path d="M93.77,327.56c-2.218-2.304-5.218-3.57-8.445-3.57H51.327c-6.491,0-12.077,5.273-12.46,11.749l-1.398,24.03    c-0.187,3.233,0.914,6.288,3.102,8.616c2.187,2.321,5.187,3.602,8.429,3.602h34.872c6.532,0,12.039-5.312,12.288-11.851    l0.867-24.007C97.145,332.911,95.988,329.865,93.77,327.56z M88.161,359.847c-0.078,2.242-2.047,4.14-4.289,4.14H48.999    c-1.015,0-1.945-0.391-2.609-1.094s-0.992-1.647-0.937-2.655l1.398-24.03c0.133-2.289,2.187-4.219,4.476-4.219v-0.001h33.997    c1.032,0,1.985,0.398,2.688,1.125c0.696,0.727,1.055,1.688,1.016,2.727L88.161,359.847z" data-original="#000000" class="active-path" data-old_color="#000000" fill="#FFFFFF"/>
	</g>
</g><g>
	<g>
		<path d="M225.38,335.958c-0.047-6.601-5.46-11.968-12.062-11.968h-31.326c-6.617,0-11.999,5.383-11.999,11.999v23.999    c0,6.616,5.382,11.999,11.999,11.999h31.623c3.195,0,6.203-1.258,8.46-3.531c2.266-2.281,3.5-5.297,3.477-8.499L225.38,335.958z     M216.404,362.815c-0.75,0.758-1.742,1.172-2.789,1.172h-31.623c-2.204,0-4-1.797-4-3.999v-23.999c0-2.203,1.797-4,4-4h31.326    c2.226,0,4.046,1.804,4.062,4.031l0.172,23.999C217.56,361.066,217.154,362.065,216.404,362.815z" data-original="#000000" class="active-path" data-old_color="#000000" fill="#FFFFFF"/>
	</g>
</g><g>
	<g>
		<path d="M149.993,323.989h-32.67c-6.531,0-12.038,5.313-12.288,11.843l-0.875,24.015c-0.117,3.218,1.039,6.265,3.258,8.562    c2.219,2.305,5.226,3.578,8.452,3.578h34.123c6.618,0,12-5.383,12-12v-23.999C161.993,329.372,156.61,323.989,149.993,323.989z     M153.993,359.989c0,2.171-1.828,3.999-4,3.999h-34.122c-1.039,0-1.992-0.398-2.695-1.125c-0.696-0.727-1.055-1.687-1.016-2.718    l0.875-24.015c0.079-2.243,2.047-4.141,4.289-4.141v0.001h32.669c2.172,0,4,1.828,4,4V359.989z" data-original="#000000" class="active-path" data-old_color="#000000" fill="#FFFFFF"/>
	</g>
</g><g>
	<g>
		<path d="M91.895,383.556c-2.218-2.304-5.218-3.57-8.445-3.57H48.327c-6.491,0-12.077,5.273-12.46,11.75l-1.398,24.029    c-0.187,3.227,0.906,6.282,3.094,8.602c2.187,2.32,5.172,3.593,8.406,3.593c0.008,0,0.039,0,0.045-0.001l35.998-0.156    c6.524-0.024,12.031-5.351,12.281-11.882l0.859-23.795C95.27,388.908,94.113,385.861,91.895,383.556z M86.295,415.633    c-0.078,2.25-2.055,4.164-4.312,4.172l-35.998,0.156l-0.016,4v-4c-1.008,0-1.93-0.383-2.586-1.086    c-0.657-0.696-0.985-1.633-0.93-2.641l1.399-24.029c0.133-2.289,2.187-4.219,4.476-4.219v0H83.45c1.032,0,1.985,0.398,2.688,1.125    c0.696,0.727,1.055,1.688,1.016,2.727L86.295,415.633z" data-original="#000000" class="active-path" data-old_color="#000000" fill="#FFFFFF"/>
	</g>
</g><g>
	<g>
		<path d="M290.032,279.883c-0.18-6.554-5.657-11.89-12.219-11.89H244.94c-3.195,0-6.203,1.258-8.46,3.531    c-2.266,2.281-3.5,5.297-3.477,8.491l0.922,135.961c0.047,6.594,5.453,11.968,12.062,11.976l35.998,0.031    c3.211,0,6.211-1.265,8.445-3.553c2.234-2.297,3.422-5.336,3.336-8.555L290.032,279.883z M284.697,418.843    c-0.711,0.735-1.68,1.141-2.711,1.141l-35.99-0.031c-2.227-0.008-4.054-1.812-4.07-4.031l-0.922-135.961    c-0.008-1.047,0.398-2.046,1.148-2.796c0.75-0.758,1.742-1.172,2.789-1.172h32.873c2.227,0,4.164,1.882,4.219,4.108l3.734,135.992    C285.799,417.132,285.416,418.109,284.697,418.843z" data-original="#000000" class="active-path" data-old_color="#000000" fill="#FFFFFF"/>
	</g>
</g><g>
	<g>
		<path d="M225.755,391.955c-0.047-6.602-5.46-11.969-12.062-11.969h-31.701c-6.617,0-11.999,5.383-11.999,12v23.998    c0,6.617,5.382,11.999,11.999,11.999h31.998c3.195,0,6.203-1.258,8.46-3.53c2.266-2.281,3.5-5.297,3.477-8.5L225.755,391.955z     M216.779,418.812c-0.75,0.758-1.742,1.172-2.789,1.172h-31.998c-2.204,0-4-1.797-4-4v-23.998c0-2.203,1.797-4,4-4h31.701    c2.226,0,4.046,1.804,4.062,4.031l0.172,23.998C217.935,417.062,217.529,418.062,216.779,418.812z" data-original="#000000" class="active-path" data-old_color="#000000" fill="#FFFFFF"/>
	</g>
</g><g>
	<g>
		<path d="M149.993,379.986h-34.546c-6.53,0-12.038,5.313-12.288,11.844l-0.875,24.014c-0.117,3.218,1.039,6.265,3.258,8.562    c2.219,2.304,5.226,3.577,8.453,3.577h35.998c6.618,0,12-5.382,12-11.999v-23.998C161.993,385.369,156.61,379.986,149.993,379.986    z M153.993,415.985c0,2.172-1.828,4-4,4h-35.997c-1.039,0-1.992-0.398-2.695-1.125c-0.696-0.727-1.055-1.688-1.016-2.719    l0.875-24.014c0.079-2.243,2.047-4.141,4.289-4.141v0.001h34.544c2.172,0,4,1.828,4,4V415.985z" data-original="#000000" class="active-path" data-old_color="#000000" fill="#FFFFFF"/>
	</g>
</g><g>
	<g>
		<path d="M225.005,279.961c-0.047-6.601-5.46-11.968-12.062-11.968h-30.951c-6.617,0-11.999,5.383-11.999,11.999v23.999    c0,6.616,5.382,11.999,11.999,11.999h31.248c3.195,0,6.203-1.258,8.461-3.531c2.265-2.281,3.499-5.296,3.476-8.499    L225.005,279.961z M216.029,306.819c-0.75,0.758-1.742,1.172-2.789,1.172h-31.248c-2.204,0-4-1.797-4-4v-23.999    c0-2.202,1.797-3.999,4-3.999h30.951c2.226,0,4.046,1.804,4.062,4.03l0.172,23.999    C217.185,305.069,216.779,306.069,216.029,306.819z" data-original="#000000" class="active-path" data-old_color="#000000" fill="#FFFFFF"/>
	</g>
</g><g>
	<g>
		<path d="M95.644,271.563c-2.218-2.304-5.218-3.57-8.445-3.57H54.326c-6.492,0-12.077,5.273-12.46,11.749l-1.398,24.03    c-0.187,3.234,0.914,6.288,3.102,8.616c2.188,2.321,5.187,3.602,8.429,3.602h33.748c6.532,0,12.039-5.312,12.287-11.851    l0.867-24.007C99.019,276.915,97.863,273.868,95.644,271.563z M90.037,303.85c-0.078,2.243-2.047,4.141-4.289,4.141H52    c-1.016,0-1.945-0.391-2.609-1.094c-0.665-0.703-0.993-1.648-0.938-2.656l1.398-24.03c0.133-2.288,2.187-4.218,4.476-4.218v-0.001    H87.2c1.032,0,1.985,0.398,2.688,1.125c0.696,0.727,1.055,1.687,1.016,2.726L90.037,303.85z" data-original="#000000" class="active-path" data-old_color="#000000" fill="#FFFFFF"/>
	</g>
</g><g>
	<g>
		<path d="M149.993,267.992h-30.795c-6.531,0-12.038,5.313-12.288,11.843l-0.875,24.015c-0.117,3.219,1.039,6.265,3.258,8.562    c2.218,2.305,5.225,3.578,8.452,3.578h32.248c6.618,0,12-5.383,12-12v-23.999C161.993,273.375,156.61,267.992,149.993,267.992z     M153.993,303.992c0,2.172-1.828,4-4,4h-32.247c-1.039,0-1.992-0.398-2.695-1.125c-0.696-0.727-1.055-1.688-1.016-2.719    l0.875-24.015c0.078-2.242,2.047-4.14,4.289-4.14v0.001h30.794c2.172,0,4,1.828,4,3.999V303.992z" data-original="#000000" class="active-path" data-old_color="#000000" fill="#FFFFFF"/>
	</g>
</g><g>
	<g>
		<path d="M284.563,135.896c-0.055-2.167-1.828-3.894-4-3.894H48.578c-2.165,0-3.93,1.718-4,3.878l-1.5,49.997    c-0.031,1.082,0.375,2.129,1.133,2.906c0.75,0.777,1.789,1.215,2.867,1.215h234.798c1.078,0,2.109-0.438,2.866-1.207    c0.75-0.773,1.156-1.82,1.133-2.898L284.563,135.896z M51.202,181.998L52.46,140h224.204l1.102,41.998H51.202z" data-original="#000000" class="active-path" data-old_color="#000000" fill="#FFFFFF"/>
	</g>
</g><g>
	<g>
		<path d="M463.975,283.992c-19.852,0-35.998,16.147-35.998,35.998s16.146,35.998,35.998,35.998    c19.85,0,35.996-16.147,35.996-35.998C499.971,300.139,483.825,283.992,463.975,283.992z M463.975,347.988    c-15.438,0-28-12.562-28-27.998s12.562-27.998,28-27.998c15.436,0,27.998,12.562,27.998,27.998S479.411,347.988,463.975,347.988z" data-original="#000000" class="active-path" data-old_color="#000000" fill="#FFFFFF"/>
	</g>
</g><g>
	<g>
		<path d="M495.973,331.989c-2.211,0-4,1.789-4,4c0,15.436-12.562,27.998-27.998,27.998c-15.438,0-28-12.561-28-27.998    c0-2.211-1.789-4-3.998-4c-2.211,0-4,1.789-4,4c0,19.851,16.146,35.998,35.998,35.998c19.85,0,35.997-16.147,35.996-35.998    C499.971,333.778,498.182,331.989,495.973,331.989z" data-original="#000000" class="active-path" data-old_color="#000000" fill="#FFFFFF"/>
	</g>
</g><g>
	<g>
		<path d="M431.977,315.99c-2.211,0-4,1.789-4,4v15.999c0,2.211,1.789,4,4,4c2.209,0,3.998-1.789,3.998-4V319.99    C435.975,317.779,434.186,315.99,431.977,315.99z" data-original="#000000" class="active-path" data-old_color="#000000" fill="#FFFFFF"/>
	</g>
</g><g>
	<g>
		<path d="M495.973,315.99c-2.211,0-4,1.789-4,4v15.999c0,2.211,1.789,4,4,4c2.209,0,3.999-1.789,3.998-4V319.99    C499.971,317.779,498.182,315.99,495.973,315.99z" data-original="#000000" class="active-path" data-old_color="#000000" fill="#FFFFFF"/>
	</g>
</g><g>
	<g>
		<path d="M463.975,307.991c-2.211,0-4,1.789-4,3.999v16c0,2.21,1.789,3.999,4,3.999c2.209,0,3.998-1.789,3.998-3.999v-16    C467.973,309.78,466.184,307.991,463.975,307.991z" data-original="#000000" class="active-path" data-old_color="#000000" fill="#FFFFFF"/>
	</g>
</g><g>
	<g>
		<path d="M415.977,379.986c-28.67,0-51.996,23.327-51.996,51.997c0,28.67,23.326,51.997,51.996,51.997s51.996-23.327,51.996-51.997    C467.973,403.313,444.647,379.986,415.977,379.986z M415.977,475.98c-24.256,0-43.998-19.74-43.998-43.997    s19.742-43.997,43.998-43.997s43.998,19.74,43.998,43.997S440.233,475.98,415.977,475.98z" data-original="#000000" class="active-path" data-old_color="#000000" fill="#FFFFFF"/>
	</g>
</g><g>
	<g>
		<path d="M463.975,443.982c-2.211,0-4,1.789-4,4c0,24.256-19.742,43.997-43.998,43.997c-24.256,0-43.998-19.741-43.998-43.997    c0-2.211-1.789-4-3.998-4c-2.211,0-4,1.789-4,4c0,28.67,23.326,51.997,51.996,51.997s51.996-23.327,51.996-51.997    C467.973,445.771,466.184,443.982,463.975,443.982z" data-original="#000000" class="active-path" data-old_color="#000000" fill="#FFFFFF"/>
	</g>
</g><g>
	<g>
		<path d="M415.977,411.984c-2.211,0-4,1.789-4,4v31.998c0,2.211,1.789,4,4,4s4-1.789,4-4v-31.998    C419.977,413.773,418.188,411.984,415.977,411.984z" data-original="#000000" class="active-path" data-old_color="#000000" fill="#FFFFFF"/>
	</g>
</g><g>
	<g>
		<path d="M463.975,427.983c-2.211,0-4,1.789-4,4v15.999c0,2.211,1.789,4,4,4c2.209,0,3.998-1.789,3.998-4v-15.999    C467.973,429.772,466.184,427.983,463.975,427.983z" data-original="#000000" class="active-path" data-old_color="#000000" fill="#FFFFFF"/>
	</g>
</g><g>
	<g>
		<path d="M367.981,427.983c-2.211,0-4,1.789-4,4v15.999c0,2.211,1.789,4,4,4c2.209,0,3.998-1.789,3.998-4v-15.999    C371.979,429.772,370.19,427.983,367.981,427.983z" data-original="#000000" class="active-path" data-old_color="#000000" fill="#FFFFFF"/>
	</g>
</g></g> </svg>
