<svg height="480pt" viewBox="0 -8 480 480" width="480pt" xmlns="http://www.w3.org/2000/svg" xmlns:xlink="http://www.w3.org/1999/xlink"><linearGradient id="a" gradientUnits="userSpaceOnUse" x1="240" x2="240" y1="597.552" y2="-149.408"><stop offset=".2" stop-color="#8e54e9"/><stop offset="5" stop-color="#4776e6"/></linearGradient><path d="m447.832031 206.351562c-.339843-1.628906-1.179687-3.109374-2.398437-4.238281l-99.089844-91.082031c-4.648438-4.632812-10.984375-7.171875-17.542969-7.03125h-.121093l-97.335938 8c-.632812.097656-1.25.269531-1.839844.511719-14.199218-25.019531-40.738281-40.484375-69.503906-40.511719v-64c0-4.417969-3.582031-8-8-8h-144c-4.417969 0-8 3.582031-8 8v304c0 4.417969 3.582031 8 8 8h144c4.417969 0 8-3.582031 8-8v-80c.34375 0 .671875 0 1.015625-.046875l23.71875 51.398437c.265625.570313.589844 1.105469.976563 1.601563l88 112c.195312.25.40625.488281.632812.710937l64 64c3.140625 3.03125 8.128906 2.988282 11.214844-.097656 3.085937-3.085937 3.128906-8.074218.097656-11.214844l-63.65625-63.671874-87.128906-110.878907-25.597656-55.449219-11.265626-24.398437c-4.222656-9.054687-.449218-19.828125 8.503907-24.265625 10.128906-5.125 22.496093-1.25 27.886719 8.738281l34.585937 63.40625c.625 1.132813 1.507813 2.101563 2.582031 2.824219l62.265625 41.511719c8.691407 5.820312 20.15625 5.320312 28.3125-1.230469l20.320313-16.257812c9.171875-7.296876 11.714844-20.160157 6.007812-30.398438l-42.191406-76.183594c-1.417969-2.539062-4.101562-4.105468-7.007812-4.097656h-63.273438v-32.632812l89.367188-7.367188c2.238281.019531 4.371093.949219 5.90625 2.574219l97.421874 89.601562 31.304688 148.625v95.199219c0 4.417969 3.582031 8 8 8s8-3.582031 8-8v-96c0-.554688-.054688-1.105469-.167969-1.648438zm-303.832031 97.648438h-128v-288h128v57.601562c-11.617188 2.394532-22.550781 7.363282-32 14.535157v-32.136719c0-4.417969-3.582031-8-8-8h-48c-4.417969 0-8 3.582031-8 8v192c0 4.417969 3.582031 8 8 8h48c4.417969 0 8-3.582031 8-8v-32.152344c9.445312 7.179688 20.382812 12.152344 32 14.550782zm-48-199.839844c-21.375 28.3125-21.375 67.367188 0 95.679688v.160156 40h-32v-176h32v40zm67.328125 53.207032c-16.703125 8.285156-23.75 28.382812-15.871094 45.28125l6.007813 13.023437c-34.316406-3.523437-59.664063-33.609375-57.316406-68.023437 2.351562-34.417969 31.554687-60.777344 66.027343-59.605469 34.476563 1.175781 61.820313 29.460937 61.824219 63.957031.027344 10.121094-2.375 20.105469-7.007812 29.105469l-4.550782-8.304688c-8.164062-15.101562-25.664062-22.574219-42.21875-18.023437-2.367187.636718-4.664062 1.503906-6.863281 2.589844zm135.230469 18.632812 39.90625 72.0625c1.886718 3.410156 1.042968 7.6875-2 10.121094l-20.328125 16.265625c-2.722657 2.171875-6.535157 2.332031-9.433594.398437l-60.625-40.40625-20.253906-37.128906c4.539062-6.535156 8.058593-13.722656 10.449219-21.3125zm0 0" fill="url(#a)"/></svg>