<svg id="Capa_1" enable-background="new 0 0 512 512" height="512" viewBox="0 0 512 512" width="512" xmlns="http://www.w3.org/2000/svg"><g><g><circle cx="256" cy="256" fill="#8ac9fe" r="248.5"/><path d="m363.659 31.969c29.167 40.724 46.341 90.62 46.341 144.531 0 137.243-111.257 248.5-248.5 248.5-38.57 0-75.087-8.788-107.659-24.469 45.083 62.946 118.827 103.969 202.159 103.969 137.243 0 248.5-111.257 248.5-248.5 0-98.673-57.511-183.913-140.841-224.031z" fill="#60b7ff"/><circle cx="256" cy="256" fill="#eaf6ff" r="216.385"/><path d="m394.39 89.661c10.085 27.034 15.61 56.29 15.61 86.839 0 137.243-111.257 248.5-248.5 248.5-15.623 0-30.904-1.457-45.728-4.214 37.769 32.171 86.726 51.599 140.228 51.599 119.506 0 216.385-96.879 216.385-216.385 0-66.869-30.339-126.647-77.995-166.339z" fill="#d8ecfe"/><g fill="#60b7ff"><path d="m255.549 122.194-73.773 118.973 75.214 47.503 73.234-47.503z"/><path d="m256.451 327.564 73.968-46.005-71.262 108.247-77.576-108.247z"/></g></g><g><path d="m177.771 247.508 75.213 47.503c1.224.773 2.614 1.159 4.005 1.159 1.421 0 2.841-.403 4.081-1.208l73.234-47.503c3.438-2.23 4.45-6.808 2.271-10.279l-74.675-118.972c-1.372-2.186-3.772-3.513-6.353-3.513-.007 0-.014 0-.021 0-2.588.007-4.989 1.348-6.354 3.547l-73.772 118.972c-2.168 3.5-1.11 8.095 2.371 10.294zm77.817-111.144 64.355 102.532-63.008 40.869-64.865-40.967z"/><path d="m175.485 285.928 77.576 108.247c1.41 1.968 3.681 3.131 6.096 3.131.049 0 .099 0 .148-.001 2.47-.049 4.758-1.311 6.116-3.375l71.262-108.247c1.937-2.942 1.565-6.836-.894-9.358-2.457-2.521-6.341-2.996-9.332-1.134l-70.03 43.556-70.92-43.578c-3.043-1.87-6.98-1.334-9.414 1.278-2.434 2.613-2.688 6.579-.608 9.481zm77.039 48.026c2.422 1.487 5.476 1.479 7.888-.021l44.956-27.96-46.474 70.592-49.553-69.145z"/><path d="m437.02 74.98c-48.352-48.351-112.64-74.98-181.02-74.98-51.271 0-100.744 15.104-143.07 43.681-41.298 27.881-73.368 66.791-92.745 112.521-1.616 3.813.165 8.215 3.979 9.832 3.813 1.616 8.215-.166 9.831-3.979 37.852-89.333 124.994-147.055 222.005-147.055 64.374 0 124.894 25.068 170.413 70.587s70.587 106.039 70.587 170.413-25.068 124.894-70.587 170.413-106.039 70.587-170.413 70.587-124.894-25.068-170.413-70.587-70.587-106.039-70.587-170.413c0-22.084 2.984-43.961 8.872-65.022 1.114-3.989-1.216-8.127-5.205-9.242-3.991-1.117-8.127 1.215-9.242 5.204-6.254 22.376-9.425 45.611-9.425 69.06 0 68.38 26.629 132.667 74.98 181.02 48.352 48.351 112.64 74.98 181.02 74.98s132.668-26.629 181.02-74.98c48.351-48.353 74.98-112.64 74.98-181.02s-26.629-132.667-74.98-181.02z"/><path d="m406.714 411.446c2.984 2.873 7.732 2.782 10.604-.202 40.347-41.916 62.566-97.049 62.566-155.244 0-59.802-23.288-116.024-65.574-158.311-42.286-42.286-98.508-65.574-158.31-65.574s-116.024 23.288-158.311 65.574c-42.286 42.287-65.574 98.509-65.574 158.311s23.288 116.024 65.574 158.311c42.286 42.286 98.509 65.574 158.311 65.574 50.099 0 97.466-16.177 136.98-46.782 3.274-2.537 3.873-7.248 1.337-10.522-2.538-3.275-7.25-3.873-10.522-1.337-36.861 28.55-81.052 43.641-127.795 43.641-115.18 0-208.885-93.706-208.885-208.885s93.705-208.885 208.885-208.885 208.885 93.706 208.885 208.885c0 54.296-20.73 105.735-58.373 144.842-2.873 2.984-2.783 7.732.202 10.604z"/></g></g></svg>