<?xml version="1.0"?>
<svg xmlns="http://www.w3.org/2000/svg" id="Layer_1_1_" enable-background="new 0 0 64 64" height="512px" viewBox="0 0 64 64" width="512px"><g><path d="m59.79 40.386-7-9-.007.005c-.098-.126-.22-.235-.372-.304l-8.781-3.952c-.326-1.341-.884-2.615-1.672-3.797-.077-1.153-.346-2.283-.81-3.339h15.852c.552 0 1-.448 1-1v-15.999c0-.552-.448-1-1-1h-41c-1.654 0-3 1.346-3 3 0 .771.301 1.468.78 2-.479.532-.78 1.229-.78 2s.301 1.468.78 2c-.48.532-.78 1.229-.78 2 0 1.654 1.346 3 3 3h10.025c-2.275 1.704-3.799 4.347-3.993 7.354-.786 1.182-1.343 2.455-1.664 3.782l-8.78 3.952c-.152.068-.274.177-.372.304l-.007-.005-7 9c-.184.236-.252.543-.186.835s.26.539.528.673l6.449 3.223v6.882c0 .394.231.75.59.912l20 9c.13.059.27.088.41.088s.28-.029.41-.088l20-9c.359-.162.59-.518.59-.912v-6.882l6.447-3.224c.268-.134.462-.381.528-.673.067-.292-.002-.598-.185-.835zm-10.228-8.386-6.663 2.995c.714-1.557 1.101-3.255 1.101-4.995 0-.176-.018-.343-.026-.515zm-17.562-16v-2h-16c-.551 0-1-.449-1-1s.449-1 1-1h16v-2h-16c-.551 0-1-.449-1-1s.449-1 1-1h16v-2h-16c-.551 0-1-.449-1-1s.449-1 1-1h40v14h-16.538c-.369 0-.708.204-.882.529s-.154.721.052 1.027c.167.25.32.507.458.771-2.035-1.491-4.514-2.327-7.09-2.327-3.309 0-6 2.691-6 6 0 1.627.64 3.149 1.802 4.287.191.187.297.437.3.704.002.267-.099.519-.287.711-.186.19-.435.297-.701.3-.26.005-.52-.098-.711-.287-1.549-1.517-2.403-3.547-2.403-5.715 0-4.411 3.589-8 8-8zm-9.798 12.041c.068-.347.156-.689.261-1.027.486 1.547 1.347 2.96 2.541 4.129.565.555 1.31.859 2.1.858h.034c.801-.009 1.551-.33 2.109-.902.279-.285.494-.616.64-.975.541.541 1.288.876 2.113.876.551 0 1 .449 1 1v1c0 .551-.449 1-1 1s-1-.449-1-1h-2c0 1.302.839 2.402 2 2.816v1.184h2v-1.184c1.161-.414 2-1.514 2-2.816v-1c0-1.654-1.346-3-3-3-.551 0-1-.449-1-1v-1c0-.551.449-1 1-1s1 .449 1 1h2c0-1.302-.839-2.402-2-2.816v-1.184h-2v1.184c-1.057.377-1.833 1.324-1.965 2.474-.66-.734-1.035-1.662-1.035-2.658 0-2.206 1.794-4 4-4 3.237 0 6.289 1.585 8.166 4.241.82 1.17 1.37 2.448 1.637 3.822.131.601.197 1.252.197 1.937 0 2.383-.858 4.679-2.408 6.49l-7.592 3.414-7.592-3.413c-1.55-1.812-2.408-4.108-2.408-6.491 0-.685.066-1.336.202-1.959zm-2.176 1.443c-.007.173-.026.34-.026.516 0 1.74.387 3.438 1.101 4.994l-6.663-2.994zm-7.719 3.75 10.935 4.915c.038.023.077.044.118.063l7.128 3.205-5.812 8.303-18.138-9.069zm.693 12.884 11.553 5.776c.143.072.296.106.447.106.317 0 .627-.151.82-.427l5.18-7.401v15.281l-18-8.1zm38 5.236-18 8.1v-15.282l5.181 7.401c.193.276.502.427.819.427.151 0 .304-.034.447-.105l11.553-5.777zm-11.675-1.634-5.812-8.303 7.128-3.205c.04-.018.079-.039.116-.062l10.937-4.916 5.769 7.417z" data-original="#000000" class="active-path" data-old_color="#000000" fill="#FFFFFF"/><path d="m52 6h2v2h-2z" data-original="#000000" class="active-path" data-old_color="#000000" fill="#FFFFFF"/><path d="m48 6h2v2h-2z" data-original="#000000" class="active-path" data-old_color="#000000" fill="#FFFFFF"/><path d="m52 10h2v2h-2z" data-original="#000000" class="active-path" data-old_color="#000000" fill="#FFFFFF"/></g> </svg>
