<?xml version="1.0"?>
<svg xmlns="http://www.w3.org/2000/svg" xmlns:xlink="http://www.w3.org/1999/xlink" id="Gradient" viewBox="0 0 512 512" width="512" height="512"><defs><linearGradient id="linear-gradient" x1="256" y1="496" x2="256" y2="16" gradientUnits="userSpaceOnUse"><stop offset=".2" stop-color="#8e54e9"/><stop offset="5" stop-color="#4776e6"/></linearGradient></defs><path d="M120,264V368a48.055,48.055,0,0,1-48,48,8,8,0,0,0-8,8v1.348A70.732,70.732,0,0,0,134.652,496h242.7A70.732,70.732,0,0,0,448,425.348V424a8,8,0,0,0-8-8,48.055,48.055,0,0,1-48-48V264a136.155,136.155,0,0,0-56.1-110.046,23.981,23.981,0,0,0-13.2-41.8L343.663,42.3A8,8,0,0,0,344,40c0-13.458-14.056-24-32-24-10.093,0-18.956,3.336-24.779,8.648C280.008,19.3,268.9,16,256,16s-24.008,3.3-31.221,8.648C218.956,19.336,210.092,16,200,16c-17.944,0-32,10.542-32,24a8.031,8.031,0,0,0,.337,2.3L189.3,112.157a23.981,23.981,0,0,0-13.2,41.8A136.155,136.155,0,0,0,120,264ZM200,32c9.767,0,16,4.738,16,8a8,8,0,0,0,16,0c0-1.583,7.719-8,24-8s24,6.417,24,8a8,8,0,0,0,16,0c0-3.262,6.233-8,16-8,9,0,15,4.022,15.886,7.206L306.047,112H281.759l6.086-30.431a8,8,0,1,0-15.69-3.138L265.441,112H246.559l-6.714-33.569a8,8,0,0,0-15.69,3.138L230.241,112H205.952L184.114,39.206C185,36.022,191,32,200,32Zm-8,96h47.947l.045,0,.039,0h31.938l.039,0,.045,0H320a8,8,0,0,1,0,16H192a8,8,0,0,1,0-16Zm4.124,32H315.876A120.155,120.155,0,0,1,376,264V368a64.1,64.1,0,0,0,55.66,63.459A54.731,54.731,0,0,1,377.348,480h-242.7a54.733,54.733,0,0,1-54.313-48.541A64.1,64.1,0,0,0,136,368V264A120.155,120.155,0,0,1,196.124,160ZM256,224c-44.112,0-80,39.477-80,88s35.888,88,80,88,80-39.477,80-88S300.112,224,256,224ZM232,336a8,8,0,0,0-16,0c0,15.453,13.764,28.383,32,31.356v16.061c-31.525-4.445-56-34.766-56-71.417s24.475-66.972,56-71.417v16.061c-18.236,2.973-32,15.9-32,31.356,0,17.645,17.944,32,40,32,13.009,0,24,7.327,24,16s-10.991,16-24,16S232,344.673,232,336Zm32,47.417V367.356c18.235-2.973,32-15.9,32-31.356,0-17.645-17.944-32-40-32-13.009,0-24-7.327-24-16s10.991-16,24-16,24,7.327,24,16a8,8,0,0,0,16,0c0-15.453-13.765-28.383-32-31.356V240.583c31.525,4.445,56,34.766,56,71.417S295.525,378.972,264,383.417Z" style="fill:url(#linear-gradient)"/></svg>
