<?xml version="1.0"?>
<svg xmlns="http://www.w3.org/2000/svg" height="512px" viewBox="0 0 512 512" width="512px" class=""><g><path d="m256 426.667969c-94.105469 0-170.667969-76.5625-170.667969-170.667969s76.5625-170.667969 170.667969-170.667969 170.667969 76.5625 170.667969 170.667969-76.5625 170.667969-170.667969 170.667969zm0-324.269531c-84.691406 0-153.601562 68.910156-153.601562 153.601562s68.910156 153.601562 153.601562 153.601562 153.601562-68.910156 153.601562-153.601562-68.910156-153.601562-153.601562-153.601562zm0 0" data-original="#000000" class="active-path" data-old_color="#000000" fill="#FFFFFF"/><path d="m256 512c-4.710938 0-8.535156-3.824219-8.535156-8.535156v-51.199219c0-4.710937 3.824218-8.53125 8.535156-8.53125s8.535156 3.820313 8.535156 8.53125v51.199219c0 4.710937-3.824218 8.535156-8.535156 8.535156zm0 0" data-original="#000000" class="active-path" data-old_color="#000000" fill="#FFFFFF"/><path d="m256 68.265625c-4.710938 0-8.535156-3.820313-8.535156-8.53125v-51.199219c0-4.710937 3.824218-8.535156 8.535156-8.535156s8.535156 3.824219 8.535156 8.535156v51.199219c0 4.710937-3.824218 8.53125-8.535156 8.53125zm0 0" data-original="#000000" class="active-path" data-old_color="#000000" fill="#FFFFFF"/><path d="m59.734375 264.535156h-51.199219c-4.710937 0-8.535156-3.824218-8.535156-8.535156s3.824219-8.535156 8.535156-8.535156h51.199219c4.710937 0 8.53125 3.824218 8.53125 8.535156s-3.820313 8.535156-8.53125 8.535156zm0 0" data-original="#000000" class="active-path" data-old_color="#000000" fill="#FFFFFF"/><path d="m503.464844 264.535156h-51.199219c-4.710937 0-8.53125-3.824218-8.53125-8.535156s3.820313-8.535156 8.53125-8.535156h51.199219c4.710937 0 8.535156 3.824218 8.535156 8.535156s-3.824219 8.535156-8.535156 8.535156zm0 0" data-original="#000000" class="active-path" data-old_color="#000000" fill="#FFFFFF"/><path d="m213.332031 384c-1.3125 0-2.636719-.296875-3.863281-.921875-3.492188-1.773437-5.324219-5.707031-4.445312-9.53125l23.183593-100.480469h-40.472656c-3.347656 0-6.375-1.953125-7.765625-4.984375-1.390625-3.035156-.878906-6.605469 1.3125-9.128906l110.933594-128c2.570312-2.96875 6.828125-3.796875 10.316406-2.023437 3.5 1.773437 5.335938 5.710937 4.445312 9.53125l-23.183593 100.472656h40.472656c3.347656 0 6.375 1.953125 7.765625 4.984375 1.390625 3.035156.878906 6.605469-1.3125 9.128906l-110.933594 128c-1.664062 1.929687-4.035156 2.953125-6.453125 2.953125zm-6.910156-128h32.511719c2.601562 0 5.058594 1.1875 6.671875 3.21875 1.621093 2.027344 2.21875 4.691406 1.640625 7.234375l-17.878906 77.484375 76.210937-87.9375h-32.511719c-2.601562 0-5.058594-1.1875-6.679687-3.21875-1.613281-2.027344-2.21875-4.691406-1.640625-7.234375l17.886718-77.484375zm0 0" data-original="#000000" class="active-path" data-old_color="#000000" fill="#FFFFFF"/><path d="m430.984375 439.519531c-2.183594 0-4.367187-.839843-6.03125-2.5l-36.199219-36.199219c-3.335937-3.335937-3.335937-8.730468 0-12.066406 3.335938-3.335937 8.730469-3.335937 12.066406 0l36.199219 36.199219c3.335938 3.335937 3.335938 8.726563 0 12.066406-1.664062 1.660157-3.851562 2.5-6.035156 2.5zm0 0" data-original="#000000" class="active-path" data-old_color="#000000" fill="#FFFFFF"/><path d="m117.222656 125.746094c-2.183594 0-4.371094-.835938-6.035156-2.5l-36.207031-36.199219c-3.335938-3.335937-3.335938-8.726563 0-12.066406 3.328125-3.335938 8.730469-3.335938 12.066406 0l36.207031 36.199219c3.339844 3.335937 3.339844 8.730468 0 12.066406-1.664062 1.671875-3.855468 2.5-6.03125 2.5zm0 0" data-original="#000000" class="active-path" data-old_color="#000000" fill="#FFFFFF"/><path d="m81.015625 439.519531c-2.183594 0-4.371094-.839843-6.035156-2.5-3.335938-3.339843-3.335938-8.730469 0-12.066406l36.207031-36.199219c3.339844-3.335937 8.738281-3.335937 12.066406 0 3.339844 3.335938 3.339844 8.730469 0 12.066406l-36.207031 36.199219c-1.664063 1.660157-3.847656 2.5-6.03125 2.5zm0 0" data-original="#000000" class="active-path" data-old_color="#000000" fill="#FFFFFF"/><path d="m394.785156 125.746094c-2.183594 0-4.367187-.835938-6.03125-2.5-3.335937-3.335938-3.335937-8.730469 0-12.066406l36.199219-36.199219c3.335937-3.335938 8.726563-3.335938 12.066406 0 3.335938 3.339843 3.335938 8.730469 0 12.066406l-36.199219 36.199219c-1.671874 1.671875-3.851562 2.5-6.035156 2.5zm0 0" data-original="#000000" class="active-path" data-old_color="#000000" fill="#FFFFFF"/></g> </svg>
