<?xml version="1.0"?>
<svg xmlns="http://www.w3.org/2000/svg" height="512px" version="1.1" viewBox="0 0 937 937.50211" width="512px" class="hovered-paths"><g><g id="surface1">
<path d="M 531.496094 218.757812 L 531.496094 343.757812 L 562.746094 343.757812 L 562.746094 218.757812 L 593.996094 218.757812 L 593.996094 343.757812 L 625.246094 343.757812 L 625.246094 218.757812 L 672.121094 218.757812 C 680.746094 218.757812 687.746094 211.757812 687.746094 203.132812 L 687.746094 140.632812 C 687.746094 134.144531 683.746094 128.335938 677.679688 126.023438 L 349.558594 1.023438 C 345.976562 -0.34375 342.023438 -0.34375 338.4375 1.023438 L 10.316406 126.023438 C 4.25 128.335938 0.25 134.144531 0.25 140.632812 L 0.25 203.132812 C 0.25 211.757812 7.25 218.757812 15.875 218.757812 L 62.75 218.757812 L 62.75 468.757812 L 47.125 468.757812 C 38.496094 468.757812 31.5 475.75 31.5 484.378906 L 31.5 531.253906 L 15.875 531.253906 C 7.25 531.253906 0.25 538.25 0.25 546.878906 L 0.25 609.378906 C 0.25 618 7.25 625.003906 15.875 625.003906 L 468.996094 625.003906 L 468.996094 593.753906 L 31.5 593.753906 L 31.5 562.503906 L 468.996094 562.503906 L 468.996094 531.253906 L 62.75 531.253906 L 62.75 500.003906 L 468.996094 500.003906 L 468.996094 218.757812 Z M 31.5 151.394531 L 344 32.347656 L 656.496094 151.394531 L 656.496094 187.507812 L 31.5 187.507812 Z M 375.246094 218.757812 L 375.246094 468.757812 L 312.75 468.757812 L 312.75 218.757812 Z M 219 218.757812 L 219 468.757812 L 156.5 468.757812 L 156.5 218.757812 Z M 94 468.757812 L 94 218.757812 L 125.25 218.757812 L 125.25 468.757812 Z M 250.25 468.757812 L 250.25 218.757812 L 281.5 218.757812 L 281.5 468.757812 Z M 437.746094 468.757812 L 406.496094 468.757812 L 406.496094 218.757812 L 437.746094 218.757812 Z M 437.746094 468.757812 " data-original="#000000" class="hovered-path active-path" data-old_color="#000000" fill="#FFFFFF"/>
<path d="M 344 156.257812 C 369.882812 156.257812 390.871094 135.269531 390.871094 109.382812 C 390.871094 83.496094 369.882812 62.507812 344 62.507812 C 318.113281 62.507812 297.125 83.496094 297.125 109.382812 C 297.125 135.269531 318.113281 156.257812 344 156.257812 Z M 344 93.757812 C 352.628906 93.757812 359.625 100.757812 359.625 109.382812 C 359.625 118.011719 352.628906 125.007812 344 125.007812 C 335.367188 125.007812 328.375 118.011719 328.375 109.382812 C 328.375 100.757812 335.367188 93.757812 344 93.757812 Z M 344 93.757812 " data-original="#000000" class="hovered-path active-path" data-old_color="#000000" fill="#FFFFFF"/>
<path d="M 843.992188 587.285156 L 843.992188 390.632812 C 843.992188 382 836.996094 375.007812 828.367188 375.007812 L 515.871094 375.007812 C 507.242188 375.007812 500.246094 382 500.246094 390.632812 L 500.246094 921.878906 C 500.246094 930.5 507.242188 937.503906 515.871094 937.503906 L 765.867188 937.503906 L 765.867188 925.660156 C 765.757812 887.335938 780.984375 850.570312 808.164062 823.546875 C 814.261719 817.445312 814.261719 807.554688 808.164062 801.453125 L 698.789062 692.082031 C 688.042969 680.859375 688.234375 663.09375 699.21875 652.101562 C 710.210938 641.117188 727.972656 640.921875 739.195312 651.679688 L 848.570312 761.046875 L 870.664062 738.953125 L 843.992188 712.28125 L 843.992188 631.472656 L 874.457031 661.9375 C 895.027344 682.40625 906.5625 710.246094 906.488281 739.265625 L 906.488281 937.503906 L 937.738281 937.503906 L 937.738281 739.265625 C 937.847656 701.949219 923.011719 666.15625 896.546875 639.847656 Z M 750.242188 590.769531 C 704.980469 553.078125 639.257812 553.078125 593.996094 590.769531 L 593.996094 497.332031 C 607.328125 492.578125 617.824219 482.09375 622.570312 468.757812 L 721.660156 468.757812 C 726.414062 482.09375 736.902344 492.578125 750.242188 497.332031 Z M 593.996094 721.730469 C 615.777344 740.269531 643.527344 750.316406 672.121094 750.003906 C 684.09375 750.007812 696.007812 748.324219 707.515625 744.984375 L 750.242188 787.722656 L 750.242188 815.167969 C 736.902344 819.925781 726.414062 830.417969 721.660156 843.753906 L 622.570312 843.753906 C 617.824219 830.417969 607.328125 819.925781 593.996094 815.167969 Z M 676.695312 629.550781 C 653.363281 652.929688 653.363281 690.769531 676.695312 714.144531 L 680.664062 718.121094 C 677.835938 718.375 675.011719 718.722656 672.121094 718.722656 C 629.039062 718.722656 593.996094 690.691406 593.996094 656.222656 C 593.996094 621.75 629.039062 593.722656 672.121094 593.722656 C 692.5 593.4375 712.347656 600.238281 728.277344 612.957031 C 709.410156 609.914062 690.238281 616.097656 676.695312 629.582031 Z M 781.492188 649.785156 L 781.492188 484.378906 C 781.492188 475.75 774.496094 468.757812 765.867188 468.757812 C 757.234375 468.757812 750.242188 461.757812 750.242188 453.132812 C 750.242188 444.5 743.246094 437.507812 734.617188 437.507812 L 609.621094 437.507812 C 600.992188 437.507812 593.996094 444.5 593.996094 453.132812 C 593.996094 461.757812 587.003906 468.757812 578.371094 468.757812 C 569.742188 468.757812 562.746094 475.75 562.746094 484.378906 L 562.746094 828.128906 C 562.746094 836.75 569.742188 843.753906 578.371094 843.753906 C 587.003906 843.753906 593.996094 850.746094 593.996094 859.378906 C 593.996094 868 600.992188 875.003906 609.621094 875.003906 L 734.617188 875.003906 C 737.636719 874.917969 740.574219 873.953125 743.042969 872.199219 C 739.492188 883.277344 737.066406 894.683594 735.804688 906.253906 L 531.496094 906.253906 L 531.496094 406.257812 L 812.742188 406.257812 L 812.742188 681.035156 Z M 781.492188 649.785156 " data-original="#000000" class="hovered-path active-path" data-old_color="#000000" fill="#FFFFFF"/>
<path d="M 656.496094 500.003906 L 687.746094 500.003906 L 687.746094 531.253906 L 656.496094 531.253906 Z M 656.496094 500.003906 " data-original="#000000" class="hovered-path active-path" data-old_color="#000000" fill="#FFFFFF"/>
<path d="M 656.496094 781.253906 L 687.746094 781.253906 L 687.746094 812.503906 L 656.496094 812.503906 Z M 656.496094 781.253906 " data-original="#000000" class="hovered-path active-path" data-old_color="#000000" fill="#FFFFFF"/>
<path d="M 234.625 718.753906 L 265.875 718.753906 L 265.875 750.003906 L 234.625 750.003906 Z M 234.625 718.753906 " data-original="#000000" class="hovered-path active-path" data-old_color="#000000" fill="#FFFFFF"/>
<path d="M 234.625 656.253906 L 265.875 656.253906 L 265.875 687.503906 L 234.625 687.503906 Z M 234.625 656.253906 " data-original="#000000" class="hovered-path active-path" data-old_color="#000000" fill="#FFFFFF"/>
<path d="M 234.625 781.253906 L 265.875 781.253906 L 265.875 812.503906 L 234.625 812.503906 Z M 234.625 781.253906 " data-original="#000000" class="hovered-path active-path" data-old_color="#000000" fill="#FFFFFF"/>
<path d="M 234.625 843.753906 L 265.875 843.753906 L 265.875 875.003906 L 234.625 875.003906 Z M 234.625 843.753906 " data-original="#000000" class="hovered-path active-path" data-old_color="#000000" fill="#FFFFFF"/>
<path d="M 297.125 843.753906 L 328.375 843.753906 L 328.375 875.003906 L 297.125 875.003906 Z M 297.125 843.753906 " data-original="#000000" class="hovered-path active-path" data-old_color="#000000" fill="#FFFFFF"/>
<path d="M 359.625 843.753906 L 390.871094 843.753906 L 390.871094 875.003906 L 359.625 875.003906 Z M 359.625 843.753906 " data-original="#000000" class="hovered-path active-path" data-old_color="#000000" fill="#FFFFFF"/>
<path d="M 422.121094 843.753906 L 453.371094 843.753906 L 453.371094 875.003906 L 422.121094 875.003906 Z M 422.121094 843.753906 " data-original="#000000" class="hovered-path active-path" data-old_color="#000000" fill="#FFFFFF"/>
</g></g> </svg>
