<svg xmlns="http://www.w3.org/2000/svg" width="87.651" height="51.129" viewBox="0 0 87.651 51.129"><defs><style>.a{fill:#e2eff5;}</style></defs><path class="a" d="M73.042,26.913a16.557,16.557,0,0,0-1.936.183l-7.523-7.487h9.459V8.652L59.456,15.445,48.975,5H32.869v7.3H45.98l7.3,7.3H40.173l-14.608,7.3-7.3-7.3H0v7.3H14.608A14.608,14.608,0,1,0,29.217,41.521l7.3,7.3H47.477L60.223,26.547l3.689,3.689a14.448,14.448,0,0,0-5.478,11.285A14.608,14.608,0,1,0,73.042,26.913ZM14.608,48.825a7.3,7.3,0,1,1,7.3-7.3A7.326,7.326,0,0,1,14.608,48.825Zm58.434,0a7.3,7.3,0,1,1,7.3-7.3A7.326,7.326,0,0,1,73.042,48.825Z" transform="translate(0 -5)"/></svg>