<svg xmlns="http://www.w3.org/2000/svg" width="168.238" height="150.8" viewBox="0 0 168.238 150.8"><defs><style>.a{fill:none;}.b{fill:#e2eff5;}</style></defs><path class="a" d="M0,0H150.8V150.8H0Z"/><g transform="translate(33.962 12.218)"><g transform="translate(0 0)"><rect class="a" width="63" height="64" transform="translate(-0.163 -0.418)"/></g><g transform="translate(2.258 7.857)"><g transform="translate(-4)"><path class="b" d="M50.7,15C34.114,15,1,23.325,1,39.851V52.276h99.4V39.851C100.4,23.325,67.29,15,50.7,15Z" transform="translate(-1 59.552)"/><path class="b" d="M53.342,26.857c.062-.683.124-1.367.124-2.112a11.618,11.618,0,0,0-.186-2.112l4.6-3.6a1.056,1.056,0,0,0,.249-1.367l-4.349-7.517a1.125,1.125,0,0,0-1.3-.5l-5.343,2.174A16.539,16.539,0,0,0,43.464,9.71l-.808-5.778A1.13,1.13,0,0,0,41.538,3h-8.7a1.024,1.024,0,0,0-1.056.932L30.976,9.71a19.4,19.4,0,0,0-3.665,2.112L21.906,9.648a1.03,1.03,0,0,0-1.3.5l-4.349,7.517a1.043,1.043,0,0,0,.249,1.367l4.6,3.6a12.063,12.063,0,0,0,0,4.225l-4.6,3.6a1.056,1.056,0,0,0-.249,1.367L20.6,39.344a1.125,1.125,0,0,0,1.3.5l5.405-2.174a16.539,16.539,0,0,0,3.665,2.112l.808,5.778a1.024,1.024,0,0,0,1.056.932h8.7a1.024,1.024,0,0,0,1.056-.932l.808-5.778a19.4,19.4,0,0,0,3.665-2.112l5.405,2.174a1.03,1.03,0,0,0,1.3-.5l4.349-7.517a1.043,1.043,0,0,0-.249-1.367ZM37.189,32.51a7.766,7.766,0,1,1,7.766-7.766A7.769,7.769,0,0,1,37.189,32.51Z" transform="translate(77.746 -3)"/><path class="b" d="M45.133,20.437l-3.106-5.405a.755.755,0,0,0-.932-.373l-3.852,1.553a10.9,10.9,0,0,0-2.609-1.491l-.559-4.1A.934.934,0,0,0,33.2,10H26.992a.741.741,0,0,0-.746.683l-.559,4.1a13.514,13.514,0,0,0-2.609,1.491l-3.852-1.553a.732.732,0,0,0-.932.373L15.188,20.5a.762.762,0,0,0,.186.994l3.293,2.547a12.066,12.066,0,0,0-.124,1.491,11.131,11.131,0,0,0,.124,1.491L15.374,29.57a.775.775,0,0,0-.186.994l3.106,5.405a.755.755,0,0,0,.932.373l3.852-1.553a10.9,10.9,0,0,0,2.609,1.491l.559,4.1a.741.741,0,0,0,.746.683H33.2a.7.7,0,0,0,.746-.683l.559-4.1a13.514,13.514,0,0,0,2.609-1.491l3.852,1.553a.732.732,0,0,0,.932-.373l3.106-5.405a.762.762,0,0,0-.186-.994l-3.231-2.547a12.063,12.063,0,0,0,.124-1.491,11.128,11.128,0,0,0-.124-1.491l3.293-2.547A.953.953,0,0,0,45.133,20.437ZM30.1,30.688a5.157,5.157,0,1,1,5.157-5.157A5.184,5.184,0,0,1,30.1,30.688Z" transform="translate(72.411 33.489)"/><path class="b" d="M7.294,35.064H60.289a3.049,3.049,0,0,0,3.044-3.044V31.9a3.049,3.049,0,0,0-3.044-3.044H58.611A24.831,24.831,0,0,0,46.186,7.417v5.9a3.106,3.106,0,1,1-6.213,0V4.87A25.414,25.414,0,0,0,33.76,4a25.414,25.414,0,0,0-6.213.87v8.449a3.106,3.106,0,1,1-6.213,0v-5.9A24.831,24.831,0,0,0,8.91,28.851H7.294A3.049,3.049,0,0,0,4.25,31.9v.186A3.037,3.037,0,0,0,7.294,35.064Z" transform="translate(15.941 2.213)"/><path class="b" d="M29.121,28.638A24.85,24.85,0,0,0,53.1,10H5.14A24.85,24.85,0,0,0,29.121,28.638Z" transform="translate(20.581 33.489)"/></g></g></g></svg>