<svg xmlns="http://www.w3.org/2000/svg" viewBox="0 0 60 60.03"><defs><style>.cls-1{fill:#ff8377;}</style></defs><g id="Layer_2" data-name="Layer 2"><g id="Layer_1-2" data-name="Layer 1"><rect class="cls-1" x="52" y="54" width="2" height="2"/><rect class="cls-1" x="56" y="54" width="2" height="2"/><rect class="cls-1" x="54" y="52" width="2" height="2"/><rect class="cls-1" x="54" y="56" width="2" height="2"/><rect class="cls-1" x="52" y="4" width="2" height="2"/><rect class="cls-1" x="56" y="4" width="2" height="2"/><rect class="cls-1" x="54" y="6" width="2" height="2"/><rect class="cls-1" x="54" y="2" width="2" height="2"/><rect class="cls-1" x="5" y="12" width="2" height="2"/><rect class="cls-1" x="1" y="12" width="2" height="2"/><rect class="cls-1" x="3" y="14" width="2" height="2"/><rect class="cls-1" x="3" y="10" width="2" height="2"/><rect class="cls-1" x="15" y="3" width="2" height="2"/><rect class="cls-1" x="11" y="3" width="2" height="2"/><rect class="cls-1" x="13" y="5" width="2" height="2"/><rect class="cls-1" x="13" y="1" width="2" height="2"/><rect class="cls-1" x="5" y="46" width="2" height="2"/><rect class="cls-1" x="1" y="46" width="2" height="2"/><rect class="cls-1" x="3" y="44" width="2" height="2"/><rect class="cls-1" x="3" y="48" width="2" height="2"/><rect class="cls-1" x="15" y="55" width="2" height="2"/><rect class="cls-1" x="11" y="55" width="2" height="2"/><rect class="cls-1" x="13" y="53" width="2" height="2"/><rect class="cls-1" x="13" y="57" width="2" height="2"/><path class="cls-1" d="M50.22,17.42a13,13,0,1,0-16.64,7.81c.39.14.8.27,1.2.37a12.8,12.8,0,0,0,0,8.8A13,13,0,1,0,50.6,43.81a12.53,12.53,0,0,0-.38-1.23,13,13,0,0,0,0-25.16ZM27,13a11,11,0,1,1,21.21,4.06A12.1,12.1,0,0,0,47,17a12.88,12.88,0,0,0-5.81,1.39A4,4,0,0,0,38,12a2,2,0,1,1,2-2h2a4,4,0,0,0-3-3.86V5a1,1,0,0,0-2,0V6.14A4,4,0,0,0,38,14a2,2,0,1,1-2,2H34a4,4,0,0,0,3,3.86V21a1,1,0,0,0,.17.52,12.55,12.55,0,0,0-1.55,2.21A10.91,10.91,0,0,1,27,13ZM49,47A11,11,0,1,1,35.62,36.27a12.55,12.55,0,0,0,1.55,2.21A1,1,0,0,0,37,39v1.14A4,4,0,0,0,38,48a2,2,0,1,1-2,2H34a4,4,0,0,0,3,3.86V55a1,1,0,0,0,2,0V53.86A4,4,0,0,0,38,46a2,2,0,1,1,2-2h2a4,4,0,0,0-.81-2.39A12.88,12.88,0,0,0,47,43a12.1,12.1,0,0,0,1.21-.06A10.87,10.87,0,0,1,49,47Zm-2-6A11,11,0,1,1,58,30,11,11,0,0,1,47,41Z"/><path class="cls-1" d="M47,25a2,2,0,0,1,2,2h2a4,4,0,0,0-3-3.86V22a1,1,0,0,0-2,0v1.14A4,4,0,0,0,47,31a2,2,0,1,1-2,2H43a4,4,0,0,0,3,3.86V38a1,1,0,0,0,2,0V36.86A4,4,0,0,0,47,29a2,2,0,0,1,0-4Z"/><path class="cls-1" d="M25,36a1,1,0,0,0-1-1H13a5,5,0,0,1,0-10H24a1,1,0,0,0,1-1V18a1,1,0,0,0-1-1H13a13,13,0,0,0,0,26H24a1,1,0,0,0,1-1ZM23,23H20V19h3ZM2,30A11,11,0,0,1,13,19h5v4H13a7,7,0,0,0,0,14h5v4H13A11,11,0,0,1,2,30ZM23,41H20V37h3Z"/><rect class="cls-1" x="25" y="27" width="8" height="2"/><rect class="cls-1" x="24" y="30" width="8" height="2"/><rect class="cls-1" x="16" y="10" width="8" height="2"/><rect class="cls-1" x="15" y="13" width="8" height="2"/><rect class="cls-1" x="16" y="45" width="8" height="2"/><rect class="cls-1" x="15" y="48" width="8" height="2"/><rect class="cls-1" x="53" y="12" width="6" height="2"/><rect class="cls-1" x="54" y="15" width="6" height="2"/><rect class="cls-1" x="53" y="46" width="6" height="2"/><rect class="cls-1" x="54" y="43" width="6" height="2"/></g></g></svg>