<?xml version="1.0" encoding="utf-8"?>
<!-- Generator: Adobe Illustrator 24.3.0, SVG Export Plug-In . SVG Version: 6.00 Build 0)  -->
<svg version="1.1" id="Layer_1" xmlns="http://www.w3.org/2000/svg" xmlns:xlink="http://www.w3.org/1999/xlink" x="0px" y="0px"
	 viewBox="0 0 60 60" style="enable-background:new 0 0 60 60;" xml:space="preserve">
<style type="text/css">
	.st0{fill:#ED7D31;}
</style>
<rect x="52" y="54" class="st0" width="2" height="2"/>
<rect x="56" y="54" class="st0" width="2" height="2"/>
<rect x="54" y="52" class="st0" width="2" height="2"/>
<rect x="54" y="56" class="st0" width="2" height="2"/>
<rect x="52" y="4" class="st0" width="2" height="2"/>
<rect x="56" y="4" class="st0" width="2" height="2"/>
<rect x="54" y="6" class="st0" width="2" height="2"/>
<rect x="54" y="2" class="st0" width="2" height="2"/>
<rect x="5" y="12" class="st0" width="2" height="2"/>
<rect x="1" y="12" class="st0" width="2" height="2"/>
<rect x="3" y="14" class="st0" width="2" height="2"/>
<rect x="3" y="10" class="st0" width="2" height="2"/>
<rect x="15" y="3" class="st0" width="2" height="2"/>
<rect x="11" y="3" class="st0" width="2" height="2"/>
<rect x="13" y="5" class="st0" width="2" height="2"/>
<rect x="13" y="1" class="st0" width="2" height="2"/>
<rect x="5" y="46" class="st0" width="2" height="2"/>
<rect x="1" y="46" class="st0" width="2" height="2"/>
<rect x="3" y="44" class="st0" width="2" height="2"/>
<rect x="3" y="48" class="st0" width="2" height="2"/>
<rect x="15" y="55" class="st0" width="2" height="2"/>
<rect x="11" y="55" class="st0" width="2" height="2"/>
<rect x="13" y="53" class="st0" width="2" height="2"/>
<rect x="13" y="57" class="st0" width="2" height="2"/>
<path class="st0" d="M50.2,17.4c2.4-6.8-1.1-14.2-7.8-16.6S28.2,1.8,25.8,8.6s1.1,14.2,7.8,16.6c0,0,0,0,0,0
	c0.4,0.1,0.8,0.3,1.2,0.4c-1,2.8-1,6,0,8.8c-7,1.8-11.2,8.9-9.4,15.8s8.9,11.2,15.8,9.4c6.9-1.8,11.1-8.8,9.4-15.8
	c-0.1-0.4-0.2-0.8-0.4-1.2c6.9-1.8,11.1-8.9,9.3-15.9C58.3,22.2,54.8,18.6,50.2,17.4z M27,13c0-6.1,4.9-11,11-11s11,4.9,11,11
	c0,1.4-0.3,2.8-0.8,4.1C47.8,17,47.4,17,47,17c-2,0-4,0.5-5.8,1.4c1.3-1.8,1-4.3-0.8-5.6C39.7,12.3,38.9,12,38,12c-1.1,0-2-0.9-2-2
	s0.9-2,2-2s2,0.9,2,2h2c0-1.8-1.2-3.4-3-3.9V5c0-0.6-0.4-1-1-1s-1,0.4-1,1v1.1c-2.1,0.6-3.4,2.8-2.8,4.9c0.5,1.7,2,2.9,3.8,3
	c1.1,0,2,0.9,2,2s-0.9,2-2,2s-2-0.9-2-2h-2c0,1.8,1.2,3.4,3,3.9V21c0,0.2,0.1,0.4,0.2,0.5c-0.6,0.7-1.1,1.4-1.5,2.2
	C30.6,22.6,27,18.2,27,13z M49,47c0,6.1-4.9,11-11,11s-11-4.9-11-11c0-5.2,3.6-9.6,8.6-10.7c0.4,0.8,1,1.5,1.5,2.2
	C37.1,38.6,37,38.8,37,39v1.1c-2.1,0.6-3.4,2.8-2.8,4.9c0.5,1.7,2,2.9,3.8,3c1.1,0,2,0.9,2,2s-0.9,2-2,2s-2-0.9-2-2h-2
	c0,1.8,1.2,3.4,3,3.9V55c0,0.6,0.4,1,1,1s1-0.4,1-1v-1.1c2.1-0.6,3.4-2.8,2.8-4.9c-0.5-1.7-2-2.9-3.8-3c-1.1,0-2-0.9-2-2s0.9-2,2-2
	s2,0.9,2,2h2c0-0.9-0.3-1.7-0.8-2.4C43,42.5,45,43,47,43c0.4,0,0.8,0,1.2-0.1C48.7,44.2,49,45.6,49,47z M47,41c-6.1,0-11-4.9-11-11
	s4.9-11,11-11s11,4.9,11,11S53.1,41,47,41z"/>
<path class="st0" d="M47,25c1.1,0,2,0.9,2,2h2c0-1.8-1.2-3.4-3-3.9V22c0-0.6-0.4-1-1-1s-1,0.4-1,1v1.1c-2.1,0.6-3.4,2.8-2.8,4.9
	c0.5,1.7,2,2.9,3.8,3c1.1,0,2,0.9,2,2c0,1.1-0.9,2-2,2s-2-0.9-2-2h-2c0,1.8,1.2,3.4,3,3.9V38c0,0.6,0.4,1,1,1s1-0.4,1-1v-1.1
	c2.1-0.6,3.4-2.8,2.8-4.9c-0.5-1.7-2-2.9-3.8-3c-1.1,0-2-0.9-2-2S45.9,25,47,25z"/>
<path class="st0" d="M25,36c0-0.6-0.4-1-1-1H13c-2.8,0-5-2.2-5-5s2.2-5,5-5h11c0.6,0,1-0.4,1-1v-6c0-0.6-0.4-1-1-1H13
	C5.8,17,0,22.8,0,30s5.8,13,13,13h11c0.6,0,1-0.4,1-1V36z M23,23h-3v-4h3V23z M2,30c0-6.1,4.9-11,11-11h5v4h-5c-3.9,0-7,3.1-7,7
	s3.1,7,7,7h5v4h-5C6.9,41,2,36.1,2,30z M23,41h-3v-4h3V41z"/>
<rect x="25" y="27" class="st0" width="8" height="2"/>
<rect x="24" y="30" class="st0" width="8" height="2"/>
<rect x="16" y="10" class="st0" width="8" height="2"/>
<rect x="15" y="13" class="st0" width="8" height="2"/>
<rect x="16" y="45" class="st0" width="8" height="2"/>
<rect x="15" y="48" class="st0" width="8" height="2"/>
<rect x="53" y="12" class="st0" width="6" height="2"/>
<rect x="54" y="15" class="st0" width="6" height="2"/>
<rect x="53" y="46" class="st0" width="6" height="2"/>
<rect x="54" y="43" class="st0" width="6" height="2"/>
</svg>
