<?xml version="1.0" encoding="utf-8"?>
<!-- Generator: Adobe Illustrator 24.3.0, SVG Export Plug-In . SVG Version: 6.00 Build 0)  -->
<svg version="1.1" id="Layer_1" xmlns="http://www.w3.org/2000/svg" xmlns:xlink="http://www.w3.org/1999/xlink" x="0px" y="0px"
	 viewBox="0 0 60 60" style="enable-background:new 0 0 60 60;" xml:space="preserve">
<style type="text/css">
	.st0{fill:#ED7D31;}
</style>
<g id="Layer_2_1_">
	<g id="Layer_1-2">
		<path class="st0" d="M25,52h10c0.6,0,1-0.4,1-1V38h3c0.6,0,1-0.4,1-1v-9.5c0-3.2-2.3-5.9-5.5-6.5c0.3-0.7,0.5-1.4,0.5-2.1
			c0-2.8-2.2-5-5-5s-5,2.2-5,5c0,0.7,0.2,1.4,0.5,2.1c-3.2,0.5-5.5,3.3-5.5,6.5V37c0,0.6,0.4,1,1,1h3v13C24,51.6,24.4,52,25,52z
			 M22,36v-8.5c0-2.5,2-4.5,4.5-4.5h0h0.9c0.6,0,1-0.4,1-1c0-0.3-0.1-0.6-0.3-0.8c-0.7-0.6-1-1.4-1.1-2.2c0-1.7,1.3-3,3-3s3,1.3,3,3
			c0,0.9-0.4,1.7-1,2.2c-0.4,0.4-0.5,1-0.1,1.4c0.2,0.2,0.4,0.3,0.7,0.3h0.8c2.5,0,4.5,2,4.5,4.5V36h-2V26h-2v24h-3V36h-2v14h-3V26
			h-2v10H22z"/>
		<path class="st0" d="M30,0c-6.3,0-12.5,2-17.6,5.7l1.2,1.6c12.5-9.1,30-6.3,39.1,6.3c5.7,7.8,6.9,18.1,3.2,27l1.8,0.8
			c6.3-15.3-1-32.9-16.4-39.1C37.8,0.8,33.9,0,30,0z"/>
		<path class="st0" d="M30,60c5.1,0,10-1.3,14.5-3.7l-1-1.8C29.9,62,12.9,57,5.5,43.4C2,37.1,1.1,29.7,3,22.7l-2-0.5
			c-4.3,16,5.1,32.5,21.1,36.8C24.7,59.7,27.3,60,30,60z"/>
		<path class="st0" d="M30,10c-11,0-20,8.9-20,20c0,7.8,4.5,14.9,11.6,18.2l0.8-1.8c-9-4.2-12.9-14.9-8.7-23.9s14.9-12.9,23.9-8.7
			s12.9,14.9,8.7,23.9c-1.8,3.9-4.9,7-8.7,8.7l0.8,1.8c10-4.6,14.4-16.5,9.7-26.6C44.9,14.5,37.8,10,30,10z"/>
		<path class="st0" d="M54.9,42.2c-0.3-1.2-1.3-2-2.4-2.3c-1.1-0.3-2.2-0.1-3.1,0.6c-1.1,0.9-1.6,2.4-1.2,3.8
			c-1.3,0.3-2.2,1.5-2.2,2.8v5.8c0,0.6,0.4,1,1,1h1V59c0,0.6,0.4,1,1,1h5c0.6,0,1-0.4,1-1v-5.1h1c0.6,0,1-0.4,1-1v-5.8
			c0-1.3-0.9-2.5-2.2-2.8C55,43.6,55.1,42.9,54.9,42.2z M55,47.1v4.8h-1c-0.6,0-1,0.4-1,1V58h-3v-5.1c0-0.6-0.4-1-1-1h-1v-4.8
			c0-0.5,0.5-1,1-1h1c0.6,0,1-0.4,1-1c0-0.3-0.2-0.6-0.4-0.8c-0.6-0.4-0.8-1.3-0.4-1.9c0,0,0,0,0,0c0.1-0.1,0.2-0.2,0.3-0.3
			c0.4-0.3,0.9-0.4,1.4-0.3c0.5,0.1,0.9,0.5,1,1c0.2,0.6,0,1.2-0.5,1.5c-0.4,0.3-0.5,0.9-0.2,1.4c0,0,0,0,0,0
			c0.2,0.3,0.5,0.4,0.8,0.4h1C54.5,46.1,55,46.5,55,47.1z"/>
		<path class="st0" d="M1,14.2h1V20c0,0.6,0.4,1,1,1h5c0.6,0,1-0.4,1-1v-5.8h1c0.6,0,1-0.4,1-1V7.3c0-1.3-0.9-2.5-2.2-2.8
			c0.2-0.7,0.2-1.3,0-2c-0.3-1.2-1.2-2-2.4-2.4C5.4-0.2,4.2,0.1,3.3,0.7C2.2,1.6,1.7,3.1,2.2,4.5C0.9,4.8,0,6,0,7.3v5.8
			C0,13.7,0.4,14.2,1,14.2z M2,7.3c0-0.6,0.4-1,1-1h1c0.6,0,1-0.4,1-1C5,5,4.9,4.7,4.6,4.5C4,4.1,3.8,3.2,4.2,2.6c0,0,0,0,0,0
			c0.1-0.1,0.2-0.2,0.3-0.3C4.9,2,5.4,1.9,5.9,2C6.4,2.1,6.8,2.5,7,3c0.2,0.6,0,1.2-0.5,1.6C6,4.8,5.8,5.5,6.1,5.9c0,0,0,0,0,0.1
			C6.4,6.3,6.7,6.4,7,6.4h1c0.6,0,1,0.4,1,1v4.8H8c-0.6,0-1,0.4-1,1V19H4v-5.8c0-0.6-0.4-1-1-1H2V7.3z"/>
		<rect x="58" class="st0" width="2" height="2"/>
		<rect x="55" y="3" class="st0" width="2" height="2"/>
		<rect x="3" y="55" class="st0" width="2" height="2"/>
		<rect x="0" y="58" class="st0" width="2" height="2"/>
	</g>
</g>
</svg>
