<svg xmlns="http://www.w3.org/2000/svg" viewBox="0 0 60.02 60"><defs><style>.cls-1{fill:#ff8377;}</style></defs><g id="Layer_2" data-name="Layer 2"><g id="Layer_1-2" data-name="Layer 1"><path class="cls-1" d="M25,52H35a1,1,0,0,0,1-1V38h3a1,1,0,0,0,1-1V27.54a6.56,6.56,0,0,0-5.47-6.45A4.87,4.87,0,0,0,35,19a5,5,0,1,0-9.54,2.09A6.54,6.54,0,0,0,20,27.54V37a1,1,0,0,0,1,1h3V51A1,1,0,0,0,25,52ZM22,36V27.54A4.54,4.54,0,0,1,26.54,23h.85a1,1,0,0,0,1-1,1,1,0,0,0-.34-.75A3,3,0,0,1,27,19a3,3,0,1,1,6,0,3,3,0,0,1-1,2.25A1,1,0,0,0,32.63,23h.84A4.55,4.55,0,0,1,38,27.54V36H36V26H34V50H31V36H29V50H26V26H24V36Z"/><path class="cls-1" d="M30,0A29.8,29.8,0,0,0,12.42,5.7l1.17,1.62a28,28,0,0,1,42.33,33.3l1.85.76A30,30,0,0,0,30,0Z"/><path class="cls-1" d="M30,60a30.07,30.07,0,0,0,14.48-3.72l-1-1.75A28,28,0,0,1,3,22.69L1,22.16A30,30,0,0,0,30,60Z"/><path class="cls-1" d="M30,10a20,20,0,0,0-8.42,38.15l.84-1.82a18,18,0,1,1,15.16,0l.84,1.82A20,20,0,0,0,30,10Z"/><path class="cls-1" d="M54.87,42.22a3.46,3.46,0,0,0-2.44-2.35,3.61,3.61,0,0,0-3.1.62,3.41,3.41,0,0,0-1.15,3.76A2.94,2.94,0,0,0,46,47.08v5.83a1,1,0,0,0,1,1h1V59a1,1,0,0,0,1,1h5a1,1,0,0,0,1-1V53.91h1a1,1,0,0,0,1-1V47.08a3,3,0,0,0-2.18-2.84A3.39,3.39,0,0,0,54.87,42.22ZM55,47.08v4.83H54a1,1,0,0,0-1,1V58H50V52.91a1,1,0,0,0-1-1H48V47.08a1,1,0,0,1,1-.95h1a1,1,0,0,0,.59-1.81,1.38,1.38,0,0,1-.36-1.92,1.22,1.22,0,0,1,.31-.33,1.53,1.53,0,0,1,1.37-.26,1.45,1.45,0,0,1,1,1,1.38,1.38,0,0,1-.54,1.55,1,1,0,0,0-.22,1.4,1,1,0,0,0,.8.41h1A1,1,0,0,1,55,47.08Z"/><path class="cls-1" d="M1,14.16H2V20a1,1,0,0,0,1,1H8a1,1,0,0,0,1-1V14.16h1a1,1,0,0,0,1-1V7.33A3,3,0,0,0,8.83,4.49a3.39,3.39,0,0,0,0-2A3.46,3.46,0,0,0,6.43.12a3.58,3.58,0,0,0-3.1.62A3.41,3.41,0,0,0,2.18,4.5,2.94,2.94,0,0,0,0,7.33v5.83A1,1,0,0,0,1,14.16ZM2,7.33a1,1,0,0,1,1-1H4a1,1,0,0,0,.59-1.81,1.38,1.38,0,0,1-.36-1.92,1.22,1.22,0,0,1,.31-.33,1.53,1.53,0,0,1,1.37-.26A1.45,1.45,0,0,1,7,3a1.38,1.38,0,0,1-.54,1.55A1,1,0,0,0,6.19,6a1,1,0,0,0,.8.41H8a1,1,0,0,1,1,1v4.83H8a1,1,0,0,0-1,1V19H4V13.16a1,1,0,0,0-1-1H2Z"/><rect class="cls-1" x="58.01" width="2" height="2"/><rect class="cls-1" x="55.01" y="3" width="2" height="2"/><rect class="cls-1" x="3.01" y="55" width="2" height="2"/><rect class="cls-1" x="0.01" y="58" width="2" height="2"/></g></g></svg>