<svg xmlns="http://www.w3.org/2000/svg" width="157.551" height="91.904" viewBox="0 0 157.551 91.904">
    <defs>
        <style>.a{fill:#6d7a7c;}</style>
    </defs>
    <path class="a"
          d="M131.292,44.388a29.761,29.761,0,0,0-3.479.328L114.29,31.258h17V11.565l-24.42,12.21L88.032,5H59.082V18.129H82.649L95.778,31.258H72.211L45.952,44.388,32.823,31.258H0V44.388H26.258A26.258,26.258,0,1,0,52.517,70.646L65.646,83.775H85.34l22.911-40.044,6.63,6.63a25.97,25.97,0,0,0-9.847,20.285,26.258,26.258,0,1,0,26.258-26.258ZM26.258,83.775A13.129,13.129,0,1,1,39.388,70.646,13.168,13.168,0,0,1,26.258,83.775Zm105.034,0a13.129,13.129,0,1,1,13.129-13.129A13.168,13.168,0,0,1,131.292,83.775Z"
          transform="translate(0 -5)"/>
</svg>
