<svg xmlns="http://www.w3.org/2000/svg" viewBox="0 0 128 101"><defs><style>.cls-1{fill:#ff8377;}</style></defs><g id="Layer_2" data-name="Layer 2"><g id="Layer_1-2" data-name="Layer 1"><path class="cls-1" d="M108,0H20A20.06,20.06,0,0,0,0,20V81a20.06,20.06,0,0,0,20,20h88a20.06,20.06,0,0,0,20-20V20A20.06,20.06,0,0,0,108,0ZM63,97H20A16,16,0,0,1,4,81V20A16,16,0,0,1,20,4H63Zm61-16a16,16,0,0,1-16,16H65V4h43a16,16,0,0,1,16,16Z"/><path class="cls-1" d="M16.5,12A4.5,4.5,0,1,0,21,16.5,4.49,4.49,0,0,0,16.5,12Zm0,7A2.5,2.5,0,1,1,19,16.5,2.5,2.5,0,0,1,16.5,19Z"/><path class="cls-1" d="M50.5,21A4.5,4.5,0,1,0,46,16.5,4.49,4.49,0,0,0,50.5,21Zm0-7A2.5,2.5,0,1,1,48,16.5,2.5,2.5,0,0,1,50.5,14Z"/><path class="cls-1" d="M33.5,21A4.5,4.5,0,1,0,29,16.5,4.49,4.49,0,0,0,33.5,21Zm0-7A2.5,2.5,0,1,1,31,16.5,2.5,2.5,0,0,1,33.5,14Z"/><path class="cls-1" d="M16.5,29A4.5,4.5,0,1,0,21,33.5,4.49,4.49,0,0,0,16.5,29Zm0,7A2.5,2.5,0,1,1,19,33.5,2.5,2.5,0,0,1,16.5,36Z"/><path class="cls-1" d="M50.5,38A4.5,4.5,0,1,0,46,33.5,4.49,4.49,0,0,0,50.5,38Zm0-7A2.5,2.5,0,1,1,48,33.5,2.5,2.5,0,0,1,50.5,31Z"/><path class="cls-1" d="M33.5,38A4.5,4.5,0,1,0,29,33.5,4.49,4.49,0,0,0,33.5,38Zm0-7A2.5,2.5,0,1,1,31,33.5,2.5,2.5,0,0,1,33.5,31Z"/><path class="cls-1" d="M16.5,46A4.5,4.5,0,1,0,21,50.5,4.49,4.49,0,0,0,16.5,46Zm0,7A2.5,2.5,0,1,1,19,50.5,2.5,2.5,0,0,1,16.5,53Z"/><path class="cls-1" d="M50.5,55A4.5,4.5,0,1,0,46,50.5,4.49,4.49,0,0,0,50.5,55Zm0-7A2.5,2.5,0,1,1,48,50.5,2.5,2.5,0,0,1,50.5,48Z"/><path class="cls-1" d="M33.5,55A4.5,4.5,0,1,0,29,50.5,4.49,4.49,0,0,0,33.5,55Zm0-7A2.5,2.5,0,1,1,31,50.5,2.5,2.5,0,0,1,33.5,48Z"/><path class="cls-1" d="M16.5,63A4.5,4.5,0,1,0,21,67.5,4.49,4.49,0,0,0,16.5,63Zm0,7A2.5,2.5,0,1,1,19,67.5,2.5,2.5,0,0,1,16.5,70Z"/><path class="cls-1" d="M50.5,72A4.5,4.5,0,1,0,46,67.5,4.49,4.49,0,0,0,50.5,72Zm0-7A2.5,2.5,0,1,1,48,67.5,2.5,2.5,0,0,1,50.5,65Z"/><path class="cls-1" d="M33.5,72A4.5,4.5,0,1,0,29,67.5,4.49,4.49,0,0,0,33.5,72Zm0-7A2.5,2.5,0,1,1,31,67.5,2.5,2.5,0,0,1,33.5,65Z"/><path class="cls-1" d="M16.5,80A4.5,4.5,0,1,0,21,84.5,4.49,4.49,0,0,0,16.5,80Zm0,7A2.5,2.5,0,1,1,19,84.5,2.5,2.5,0,0,1,16.5,87Z"/><path class="cls-1" d="M50.5,89A4.5,4.5,0,1,0,46,84.5,4.49,4.49,0,0,0,50.5,89Zm0-7A2.5,2.5,0,1,1,48,84.5,2.5,2.5,0,0,1,50.5,82Z"/><path class="cls-1" d="M33.5,89A4.5,4.5,0,1,0,29,84.5,4.49,4.49,0,0,0,33.5,89Zm0-7A2.5,2.5,0,1,1,31,84.5,2.5,2.5,0,0,1,33.5,82Z"/></g></g></svg>