<?xml version="1.0" encoding="utf-8"?>
<!-- Generator: Adobe Illustrator 24.3.0, SVG Export Plug-In . SVG Version: 6.00 Build 0)  -->
<svg version="1.1" id="Layer_1" xmlns="http://www.w3.org/2000/svg" xmlns:xlink="http://www.w3.org/1999/xlink" x="0px" y="0px"
	 viewBox="0 0 128 101" style="enable-background:new 0 0 128 101;" xml:space="preserve">
<style type="text/css">
	.st0{fill:#ED7D31;}
</style>
<path class="st0" d="M108,0H20C9,0,0,9,0,20v61c0,11,9,20,20,20h88c11,0,20-9,20-20V20C128,9,119,0,108,0z M63,97H20
	c-8.8,0-16-7.2-16-16V20c0-8.8,7.2-16,16-16h43V97z M124,81c0,8.8-7.2,16-16,16H65V4h43c8.8,0,16,7.2,16,16V81z"/>
<path class="st0" d="M16.5,12C14,12,12,14,12,16.5s2,4.5,4.5,4.5s4.5-2,4.5-4.5S19,12,16.5,12L16.5,12z M16.5,19
	c-1.4,0-2.5-1.1-2.5-2.5s1.1-2.5,2.5-2.5s2.5,1.1,2.5,2.5S17.9,19,16.5,19z"/>
<path class="st0" d="M50.5,21c2.5,0,4.5-2,4.5-4.5S53,12,50.5,12S46,14,46,16.5S48,21,50.5,21L50.5,21z M50.5,14
	c1.4,0,2.5,1.1,2.5,2.5S51.9,19,50.5,19S48,17.9,48,16.5S49.1,14,50.5,14z"/>
<path class="st0" d="M33.5,21c2.5,0,4.5-2,4.5-4.5S36,12,33.5,12S29,14,29,16.5S31,21,33.5,21L33.5,21z M33.5,14
	c1.4,0,2.5,1.1,2.5,2.5S34.9,19,33.5,19S31,17.9,31,16.5S32.1,14,33.5,14z"/>
<path class="st0" d="M16.5,29C14,29,12,31,12,33.5s2,4.5,4.5,4.5s4.5-2,4.5-4.5S19,29,16.5,29L16.5,29z M16.5,36
	c-1.4,0-2.5-1.1-2.5-2.5s1.1-2.5,2.5-2.5s2.5,1.1,2.5,2.5S17.9,36,16.5,36z"/>
<path class="st0" d="M50.5,38c2.5,0,4.5-2,4.5-4.5S53,29,50.5,29S46,31,46,33.5S48,38,50.5,38L50.5,38z M50.5,31
	c1.4,0,2.5,1.1,2.5,2.5S51.9,36,50.5,36S48,34.9,48,33.5S49.1,31,50.5,31z"/>
<path class="st0" d="M33.5,38c2.5,0,4.5-2,4.5-4.5S36,29,33.5,29S29,31,29,33.5S31,38,33.5,38L33.5,38z M33.5,31
	c1.4,0,2.5,1.1,2.5,2.5S34.9,36,33.5,36S31,34.9,31,33.5S32.1,31,33.5,31z"/>
<path class="st0" d="M16.5,46C14,46,12,48,12,50.5s2,4.5,4.5,4.5s4.5-2,4.5-4.5S19,46,16.5,46L16.5,46z M16.5,53
	c-1.4,0-2.5-1.1-2.5-2.5s1.1-2.5,2.5-2.5s2.5,1.1,2.5,2.5S17.9,53,16.5,53z"/>
<path class="st0" d="M50.5,55c2.5,0,4.5-2,4.5-4.5S53,46,50.5,46S46,48,46,50.5l0,0C46,53,48,55,50.5,55L50.5,55z M50.5,48
	c1.4,0,2.5,1.1,2.5,2.5S51.9,53,50.5,53S48,51.9,48,50.5S49.1,48,50.5,48z"/>
<path class="st0" d="M33.5,55c2.5,0,4.5-2,4.5-4.5S36,46,33.5,46S29,48,29,50.5l0,0C29,53,31,55,33.5,55L33.5,55z M33.5,48
	c1.4,0,2.5,1.1,2.5,2.5S34.9,53,33.5,53S31,51.9,31,50.5S32.1,48,33.5,48z"/>
<path class="st0" d="M16.5,63C14,63,12,65,12,67.5s2,4.5,4.5,4.5s4.5-2,4.5-4.5S19,63,16.5,63L16.5,63z M16.5,70
	c-1.4,0-2.5-1.1-2.5-2.5s1.1-2.5,2.5-2.5s2.5,1.1,2.5,2.5S17.9,70,16.5,70z"/>
<path class="st0" d="M50.5,72c2.5,0,4.5-2,4.5-4.5S53,63,50.5,63S46,65,46,67.5S48,72,50.5,72L50.5,72z M50.5,65
	c1.4,0,2.5,1.1,2.5,2.5S51.9,70,50.5,70S48,68.9,48,67.5S49.1,65,50.5,65z"/>
<path class="st0" d="M33.5,72c2.5,0,4.5-2,4.5-4.5S36,63,33.5,63S29,65,29,67.5S31,72,33.5,72L33.5,72z M33.5,65
	c1.4,0,2.5,1.1,2.5,2.5S34.9,70,33.5,70S31,68.9,31,67.5S32.1,65,33.5,65z"/>
<path class="st0" d="M16.5,80C14,80,12,82,12,84.5s2,4.5,4.5,4.5s4.5-2,4.5-4.5S19,80,16.5,80L16.5,80z M16.5,87
	c-1.4,0-2.5-1.1-2.5-2.5s1.1-2.5,2.5-2.5s2.5,1.1,2.5,2.5S17.9,87,16.5,87z"/>
<path class="st0" d="M50.5,89c2.5,0,4.5-2,4.5-4.5S53,80,50.5,80S46,82,46,84.5S48,89,50.5,89L50.5,89z M50.5,82
	c1.4,0,2.5,1.1,2.5,2.5S51.9,87,50.5,87S48,85.9,48,84.5S49.1,82,50.5,82z"/>
<path class="st0" d="M33.5,89c2.5,0,4.5-2,4.5-4.5S36,80,33.5,80S29,82,29,84.5S31,89,33.5,89L33.5,89z M33.5,82
	c1.4,0,2.5,1.1,2.5,2.5S34.9,87,33.5,87S31,85.9,31,84.5S32.1,82,33.5,82z"/>
</svg>
