<svg xmlns="http://www.w3.org/2000/svg" width="62.437" height="62.437" viewBox="0 0 62.437 62.437"><defs><style>.a{fill:none;}.b{fill:#e2eff5;}</style></defs><path class="a" d="M0,0H62.437V62.437H0Z"/><path class="b" d="M3,2,8.229,49.426a5.209,5.209,0,0,0,5.177,4.6H39.422a5.209,5.209,0,0,0,5.177-4.6L49.828,2ZM26.414,46.226a7.794,7.794,0,0,1-7.8-7.8c0-5.2,7.8-14.048,7.8-14.048s7.8,8.845,7.8,14.048A7.794,7.794,0,0,1,26.414,46.226ZM42.882,17.609H9.946L8.8,7.2H44Z" transform="translate(4.805 3.203)"/></svg>