<svg xmlns="http://www.w3.org/2000/svg" width="122.402" height="122.402" viewBox="0 0 122.402 122.402"><defs><style>.a{fill:none;}.b{fill:#e2eff5;}</style></defs><path class="a" d="M0,0H122.4V122.4H0Z"/><path class="b" d="M58.1,2a56.1,56.1,0,1,0,56.1,56.1A56.121,56.121,0,0,0,58.1,2Zm7.91,90.267v10.715H51.032V92.154C41.439,90.135,33.3,83.964,32.687,73.08h11c.561,5.891,4.6,10.491,14.867,10.491,11,0,13.464-5.5,13.464-8.92,0-4.656-2.468-9.032-14.979-12.006-13.913-3.366-23.45-9.088-23.45-20.589,0-9.649,7.8-15.933,17.447-18.008V13.22H66.011V24.16C76.446,26.684,81.663,34.595,82,43.178H71c-.281-6.227-3.59-10.491-12.454-10.491-8.415,0-13.464,3.815-13.464,9.2,0,4.712,3.647,7.8,14.979,10.715s23.45,7.8,23.45,21.935c-.056,10.266-7.742,15.877-17.5,17.728Z" transform="translate(8.2 8.2)"/></svg>