<svg xmlns="http://www.w3.org/2000/svg" width="62.437" height="62.437" viewBox="0 0 62.437 62.437"><defs><style>.a{fill:none;}.b{fill:#e2eff5;}</style></defs><path class="a" d="M0,0H62.437V62.437H0Z"/><path class="b" d="M26.224,43.641a2.9,2.9,0,1,0,2.9-2.9A2.911,2.911,0,0,0,26.224,43.641ZM26.224,3V14.612H32.03V9.038A20.31,20.31,0,1,1,8.806,29.127,20.081,20.081,0,0,1,13.393,16.3L29.127,32.03l4.093-4.093L13.48,8.2v.058A26.076,26.076,0,1,0,29.127,3ZM46.544,29.127a2.9,2.9,0,1,0-2.9,2.9A2.911,2.911,0,0,0,46.544,29.127Zm-34.835,0a2.9,2.9,0,1,0,2.9-2.9A2.911,2.911,0,0,0,11.709,29.127Z" transform="translate(0.203 1.981)"/></svg>